  0
SECTION
  2
HEADER
  9
$ACADVER
  1
AC1015
  9
$ACADMAINTVER
 70
     6
  9
$DWGCODEPAGE
  3
ANSI_1252
  9
$INSBASE
 10
0.0
 20
0.0
 30
0.0
  9
$EXTMIN
 10
-0.203946014
 20
-0.203946014
 30
0.0
  9
$EXTMAX
 10
0.203946014
 20
0.203946014
 30
0.0
  9
$LIMMIN
 10
0.0
 20
0.0
  9
$LIMMAX
 10
12.0
 20
9.0
  9
$ORTHOMODE
 70
     0
  9
$REGENMODE
 70
     1
  9
$FILLMODE
 70
     1
  9
$QTEXTMODE
 70
     0
  9
$MIRRTEXT
 70
     1
  9
$LTSCALE
 40
1.0
  9
$ATTMODE
 70
     1
  9
$TEXTSIZE
 40
0.1377952756
  9
$TRACEWID
 40
0.05
  9
$TEXTSTYLE
  7
Standard
  9
$CLAYER
  8
0
  9
$CELTYPE
  6
ByLayer
  9
$CECOLOR
 62
   256
  9
$CELTSCALE
 40
1.0
  9
$DISPSILH
 70
     0
  9
$DIMSCALE
 40
1.0
  9
$DIMASZ
 40
0.13
  9
$DIMEXO
 40
0.0393700787
  9
$DIMDLI
 40
0.38
  9
$DIMRND
 40
0.0
  9
$DIMDLE
 40
0.0
  9
$DIMEXE
 40
0.0393700787
  9
$DIMTP
 40
0.0
  9
$DIMTM
 40
0.0
  9
$DIMTXT
 40
0.1377952756
  9
$DIMCEN
 40
0.09
  9
$DIMTSZ
 40
0.0
  9
$DIMTOL
 70
     0
  9
$DIMLIM
 70
     0
  9
$DIMTIH
 70
     1
  9
$DIMTOH
 70
     1
  9
$DIMSE1
 70
     0
  9
$DIMSE2
 70
     0
  9
$DIMTAD
 70
     1
  9
$DIMZIN
 70
     0
  9
$DIMBLK
  1

  9
$DIMASO
 70
     1
  9
$DIMSHO
 70
     1
  9
$DIMPOST
  1

  9
$DIMAPOST
  1

  9
$DIMALT
 70
     0
  9
$DIMALTD
 70
     2
  9
$DIMALTF
 40
25.4
  9
$DIMLFAC
 40
1.0
  9
$DIMTOFL
 70
     0
  9
$DIMTVP
 40
0.0
  9
$DIMTIX
 70
     0
  9
$DIMSOXD
 70
     0
  9
$DIMSAH
 70
     0
  9
$DIMBLK1
  1

  9
$DIMBLK2
  1

  9
$DIMSTYLE
  2
Standard
  9
$DIMCLRD
 70
     0
  9
$DIMCLRE
 70
     0
  9
$DIMCLRT
 70
     0
  9
$DIMTFAC
 40
1.0
  9
$DIMGAP
 40
0.06
  9
$DIMJUST
 70
     0
  9
$DIMSD1
 70
     0
  9
$DIMSD2
 70
     0
  9
$DIMTOLJ
 70
     1
  9
$DIMTZIN
 70
     0
  9
$DIMALTZ
 70
     0
  9
$DIMALTTZ
 70
     0
  9
$DIMUPT
 70
     0
  9
$DIMDEC
 70
     2
  9
$DIMTDEC
 70
     2
  9
$DIMALTU
 70
     2
  9
$DIMALTTD
 70
     2
  9
$DIMTXSTY
  7
Standard
  9
$DIMAUNIT
 70
     0
  9
$DIMADEC
 70
     2
  9
$DIMALTRND
 40
0.0
  9
$DIMAZIN
 70
     0
  9
$DIMDSEP
 70
    46
  9
$DIMATFIT
 70
     3
  9
$DIMFRAC
 70
     0
  9
$DIMLDRBLK
  1

  9
$DIMLUNIT
 70
     2
  9
$DIMLWD
 70
    -2
  9
$DIMLWE
 70
    -2
  9
$DIMTMOVE
 70
     0
  9
$LUNITS
 70
     2
  9
$LUPREC
 70
     2
  9
$SKETCHINC
 40
0.1
  9
$FILLETRAD
 40
0.5
  9
$AUNITS
 70
     0
  9
$AUPREC
 70
     2
  9
$MENU
  1
.
  9
$ELEVATION
 40
0.0
  9
$PELEVATION
 40
0.0
  9
$THICKNESS
 40
0.0
  9
$LIMCHECK
 70
     0
  9
$CHAMFERA
 40
0.0
  9
$CHAMFERB
 40
0.0
  9
$CHAMFERC
 40
0.0
  9
$CHAMFERD
 40
0.0
  9
$SKPOLY
 70
     0
  9
$TDCREATE
 40
2457807.830064757
  9
$TDUCREATE
 40
2457808.03839809
  9
$TDUPDATE
 40
2457807.830151817
  9
$TDUUPDATE
 40
2457808.03848515
  9
$TDINDWG
 40
0.0000000116
  9
$TDUSRTIMER
 40
0.0000000116
  9
$USRTIMER
 70
     1
  9
$ANGBASE
 50
0.0
  9
$ANGDIR
 70
     0
  9
$PDMODE
 70
     0
  9
$PDSIZE
 40
-1.0
  9
$PLINEWID
 40
0.0
  9
$SPLFRAME
 70
     0
  9
$SPLINETYPE
 70
     6
  9
$SPLINESEGS
 70
     8
  9
$HANDSEED
  5
122
  9
$SURFTAB1
 70
     6
  9
$SURFTAB2
 70
     6
  9
$SURFTYPE
 70
     6
  9
$SURFU
 70
     6
  9
$SURFV
 70
     6
  9
$UCSBASE
  2

  9
$UCSNAME
  2

  9
$UCSORG
 10
0.0
 20
0.0
 30
0.0
  9
$UCSXDIR
 10
1.0
 20
0.0
 30
0.0
  9
$UCSYDIR
 10
0.0
 20
1.0
 30
0.0
  9
$UCSORTHOREF
  2

  9
$UCSORTHOVIEW
 70
     0
  9
$UCSORGTOP
 10
0.0
 20
0.0
 30
0.0
  9
$UCSORGBOTTOM
 10
0.0
 20
0.0
 30
0.0
  9
$UCSORGLEFT
 10
0.0
 20
0.0
 30
0.0
  9
$UCSORGRIGHT
 10
0.0
 20
0.0
 30
0.0
  9
$UCSORGFRONT
 10
0.0
 20
0.0
 30
0.0
  9
$UCSORGBACK
 10
0.0
 20
0.0
 30
0.0
  9
$PUCSBASE
  2

  9
$PUCSNAME
  2

  9
$PUCSORG
 10
0.0
 20
0.0
 30
0.0
  9
$PUCSXDIR
 10
1.0
 20
0.0
 30
0.0
  9
$PUCSYDIR
 10
0.0
 20
1.0
 30
0.0
  9
$PUCSORTHOREF
  2

  9
$PUCSORTHOVIEW
 70
     0
  9
$PUCSORGTOP
 10
0.0
 20
0.0
 30
0.0
  9
$PUCSORGBOTTOM
 10
0.0
 20
0.0
 30
0.0
  9
$PUCSORGLEFT
 10
0.0
 20
0.0
 30
0.0
  9
$PUCSORGRIGHT
 10
0.0
 20
0.0
 30
0.0
  9
$PUCSORGFRONT
 10
0.0
 20
0.0
 30
0.0
  9
$PUCSORGBACK
 10
0.0
 20
0.0
 30
0.0
  9
$USERI1
 70
     0
  9
$USERI2
 70
     0
  9
$USERI3
 70
     0
  9
$USERI4
 70
     0
  9
$USERI5
 70
     0
  9
$USERR1
 40
0.0
  9
$USERR2
 40
0.0
  9
$USERR3
 40
0.0
  9
$USERR4
 40
0.0
  9
$USERR5
 40
0.0
  9
$WORLDVIEW
 70
     1
  9
$SHADEDGE
 70
     3
  9
$SHADEDIF
 70
    70
  9
$TILEMODE
 70
     1
  9
$MAXACTVP
 70
    64
  9
$PINSBASE
 10
0.0
 20
0.0
 30
0.0
  9
$PLIMCHECK
 70
     0
  9
$PEXTMIN
 10
1.0000000000E+20
 20
1.0000000000E+20
 30
1.0000000000E+20
  9
$PEXTMAX
 10
-1.0000000000E+20
 20
-1.0000000000E+20
 30
-1.0000000000E+20
  9
$PLIMMIN
 10
0.0
 20
0.0
  9
$PLIMMAX
 10
12.0
 20
9.0
  9
$UNITMODE
 70
     0
  9
$VISRETAIN
 70
     1
  9
$PLINEGEN
 70
     0
  9
$PSLTSCALE
 70
     1
  9
$TREEDEPTH
 70
  3020
  9
$CMLSTYLE
  2
Standard
  9
$CMLJUST
 70
     0
  9
$CMLSCALE
 40
1.0
  9
$PROXYGRAPHICS
 70
     1
  9
$MEASUREMENT
 70
     0
  9
$CELWEIGHT
370
    -1
  9
$ENDCAPS
280
     0
  9
$JOINSTYLE
280
     0
  9
$LWDISPLAY
290
     1
  9
$INSUNITS
 70
     1
  9
$HYPERLINKBASE
  1

  9
$STYLESHEET
  1

  9
$XEDIT
290
     1
  9
$CEPSNTYPE
380
     0
  9
$PSTYLEMODE
290
     1
  9
$FINGERPRINTGUID
  2
{111858EA-70CF-42D9-86DA-B3914E3EA765}
  9
$VERSIONGUID
  2
{FAEB1C32-E019-11D5-929B-00C0DF256EC4}
  9
$EXTNAMES
290
     1
  9
$PSVPSCALE
 40
0.0
  9
$OLESTARTUP
290
     0
  0
ENDSEC
  0
SECTION
  2
CLASSES
  0
CLASS
  1
ACDBDICTIONARYWDFLT
  2
AcDbDictionaryWithDefault
  3
ObjectDBX Classes
 90
        0
280
     0
281
     0
  0
CLASS
  1
VISUALSTYLE
  2
AcDbVisualStyle
  3
ObjectDBX Classes
 90
     4095
280
     0
281
     0
  0
CLASS
  1
MATERIAL
  2
AcDbMaterial
  3
ObjectDBX Classes
 90
     1153
280
     0
281
     0
  0
CLASS
  1
SCALE
  2
AcDbScale
  3
ObjectDBX Classes
 90
     1153
280
     0
281
     0
  0
CLASS
  1
TABLESTYLE
  2
AcDbTableStyle
  3
ObjectDBX Classes
 90
     4095
280
     0
281
     0
  0
CLASS
  1
MLEADERSTYLE
  2
AcDbMLeaderStyle
  3
ACDB_MLEADERSTYLE_CLASS
 90
     4095
280
     0
281
     0
  0
CLASS
  1
SUN
  2
AcDbSun
  3
SCENEOE
 90
     1153
280
     0
281
     0
  0
CLASS
  1
ACDBPLACEHOLDER
  2
AcDbPlaceHolder
  3
ObjectDBX Classes
 90
        0
280
     0
281
     0
  0
CLASS
  1
LAYOUT
  2
AcDbLayout
  3
ObjectDBX Classes
 90
        0
280
     0
281
     0
  0
ENDSEC
  0
SECTION
  2
TABLES
  0
TABLE
  2
VPORT
  5
8
330
0
100
AcDbSymbolTable
 70
     1
  0
VPORT
  5
29
330
8
100
AcDbSymbolTableRecord
100
AcDbViewportTableRecord
  2
*Active
 70
     0
 10
0.0
 20
0.0
 11
1.0
 21
1.0
 12
0.0
 22
0.0
 13
0.0
 23
0.0
 14
0.5
 24
0.5
 15
0.5
 25
0.5
 16
0.0
 26
0.0
 36
1.0
 17
0.0
 27
0.0
 37
0.0
 40
0.4160498685
 41
1.0
 42
50.0
 43
0.0
 44
0.0
 50
0.0
 51
0.0
 71
     0
 72
   100
 73
     1
 74
     3
 75
     0
 76
     0
 77
     0
 78
     0
281
     0
 65
     1
110
0.0
120
0.0
130
0.0
111
1.0
121
0.0
131
0.0
112
0.0
122
1.0
132
0.0
 79
     0
146
0.0
  0
ENDTAB
  0
TABLE
  2
LTYPE
  5
5
330
0
100
AcDbSymbolTable
 70
     6
  0
LTYPE
  5
14
330
5
100
AcDbSymbolTableRecord
100
AcDbLinetypeTableRecord
  2
ByBlock
 70
     0
  3

 72
    65
 73
     0
 40
0.0
  0
LTYPE
  5
15
330
5
100
AcDbSymbolTableRecord
100
AcDbLinetypeTableRecord
  2
ByLayer
 70
     0
  3

 72
    65
 73
     0
 40
0.0
  0
LTYPE
  5
16
330
5
100
AcDbSymbolTableRecord
100
AcDbLinetypeTableRecord
  2
Continuous
 70
     0
  3
Solid line
 72
    65
 73
     0
 40
0.0
  0
LTYPE
  5
6E
330
5
100
AcDbSymbolTableRecord
100
AcDbLinetypeTableRecord
  2
HIDDEN
 70
     0
  3
Hidden __ __ __ __ __ __ __ __ __ __ __ __ __ __
 72
    65
 73
     2
 40
0.075
 49
0.05
 74
     0
 49
-0.025
 74
     0
  0
LTYPE
  5
6F
330
5
100
AcDbSymbolTableRecord
100
AcDbLinetypeTableRecord
  2
PHANTOM
 70
     0
  3
Phantom ______  __  __  ______  __  __  ______
 72
    65
 73
     6
 40
0.5
 49
0.25
 74
     0
 49
-0.05
 74
     0
 49
0.05
 74
     0
 49
-0.05
 74
     0
 49
0.05
 74
     0
 49
-0.05
 74
     0
  0
LTYPE
  5
70
330
5
100
AcDbSymbolTableRecord
100
AcDbLinetypeTableRecord
  2
CENTER
 70
     0
  3
Center ____ _ ____ _ ____ _ ____ _ ____ _ ____
 72
    65
 73
     4
 40
0.4
 49
0.25
 74
     0
 49
-0.05
 74
     0
 49
0.05
 74
     0
 49
-0.05
 74
     0
  0
LTYPE
  5
71
330
5
100
AcDbSymbolTableRecord
100
AcDbLinetypeTableRecord
  2
CENTERX2
 70
     0
  3
Center (2x) ________  __  ________  __  _____
 72
    65
 73
     4
 40
0.8
 49
0.5
 74
     0
 49
-0.1
 74
     0
 49
0.1
 74
     0
 49
-0.1
 74
     0
  0
LTYPE
  5
72
330
5
100
AcDbSymbolTableRecord
100
AcDbLinetypeTableRecord
  2
DOT2
 70
     0
  3
Dot (.5x) ........................................
 72
    65
 73
     2
 40
0.025
 49
0.0
 74
     0
 49
-0.025
 74
     0
  0
ENDTAB
  0
TABLE
  2
LAYER
  5
2
330
0
100
AcDbSymbolTable
 70
     1
  0
LAYER
  5
10
330
2
100
AcDbSymbolTableRecord
100
AcDbLayerTableRecord
  2
0
 70
     0
 62
     7
  6
Continuous
370
    -3
390
F
  0
ENDTAB
  0
TABLE
  2
STYLE
  5
3
330
0
100
AcDbSymbolTable
 70
     2
  0
STYLE
  5
11
330
3
100
AcDbSymbolTableRecord
100
AcDbTextStyleTableRecord
  2
Standard
 70
     0
 40
0.0
 41
1.0
 50
0.0
 71
     0
 42
0.1377952756
  3
txt
  4

  0
STYLE
  5
11F
330
3
100
AcDbSymbolTableRecord
100
AcDbTextStyleTableRecord
  2
SLDTEXTSTYLE0
 70
     0
 40
0.0
 41
0.7
 50
0.0
 71
     0
 42
0.1377952756
  3
TXT
  4

  0
ENDTAB
  0
TABLE
  2
VIEW
  5
6
330
0
100
AcDbSymbolTable
 70
     0
  0
ENDTAB
  0
TABLE
  2
UCS
  5
7
330
0
100
AcDbSymbolTable
 70
     0
  0
ENDTAB
  0
TABLE
  2
APPID
  5
9
330
0
100
AcDbSymbolTable
 70
     1
  0
APPID
  5
12
330
9
100
AcDbSymbolTableRecord
100
AcDbRegAppTableRecord
  2
ACAD
 70
     0
  0
ENDTAB
  0
TABLE
  2
DIMSTYLE
  5
A
330
0
100
AcDbSymbolTable
 70
     1
100
AcDbDimStyleTable
  0
DIMSTYLE
105
27
330
A
100
AcDbSymbolTableRecord
100
AcDbDimStyleTableRecord
  2
Standard
 70
     0
178
     0
340
11
  0
ENDTAB
  0
TABLE
  2
BLOCK_RECORD
  5
1
330
0
100
AcDbSymbolTable
 70
     1
  0
BLOCK_RECORD
  5
1F
330
1
100
AcDbSymbolTableRecord
100
AcDbBlockTableRecord
  2
*Model_Space
340
22
  0
BLOCK_RECORD
  5
1B
330
1
100
AcDbSymbolTableRecord
100
AcDbBlockTableRecord
  2
*Paper_Space
340
1E
  0
BLOCK_RECORD
  5
23
330
1
100
AcDbSymbolTableRecord
100
AcDbBlockTableRecord
  2
*Paper_Space0
340
26
  0
ENDTAB
  0
ENDSEC
  0
SECTION
  2
BLOCKS
  0
BLOCK
  5
20
330
1F
100
AcDbEntity
  8
0
100
AcDbBlockBegin
  2
*Model_Space
 70
     0
 10
0.0
 20
0.0
 30
0.0
  3
*Model_Space
  1

  0
ENDBLK
  5
21
330
1F
100
AcDbEntity
  8
0
100
AcDbBlockEnd
  0
BLOCK
  5
1C
330
1B
100
AcDbEntity
 67
     1
  8
0
100
AcDbBlockBegin
  2
*Paper_Space
 70
     0
 10
0.0
 20
0.0
 30
0.0
  3
*Paper_Space
  1

  0
ENDBLK
  5
1D
330
1B
100
AcDbEntity
 67
     1
  8
0
100
AcDbBlockEnd
  0
BLOCK
  5
24
330
23
100
AcDbEntity
  8
0
100
AcDbBlockBegin
  2
*Paper_Space0
 70
     0
 10
0.0
 20
0.0
 30
0.0
  3
*Paper_Space0
  1

  0
ENDBLK
  5
25
330
23
100
AcDbEntity
  8
0
100
AcDbBlockEnd
  0
ENDSEC
  0
SECTION
  2
ENTITIES
  0
SPLINE
  5
7B
330
1F
100
AcDbEntity
  8
0
  6
Continuous
 62
     7
370
    15
100
AcDbSpline
210
0.0
220
0.0
230
1.0
 70
     8
 71
     3
 72
    13
 73
     9
 74
     0
 42
0.000000001
 43
0.00000001
 40
0.0
 40
0.0
 40
0.0
 40
0.0
 40
0.1249999999999994
 40
0.1249999999999994
 40
0.2499999999999989
 40
0.4999999999999989
 40
0.4999999999999989
 40
1.0
 40
1.0
 40
1.0
 40
1.0
 10
0.1132239555245669
 20
0.120183608884306
 30
0.0
 10
0.1145298589434527
 20
0.1215123025875032
 30
0.0
 10
0.116108644521393
 20
0.1225405878180152
 30
0.0
 10
0.1192746000259774
 20
0.1245037401018732
 30
0.0
 10
0.1242070538262863
 20
0.1271468979763504
 30
0.0
 10
0.1294570432201836
 20
0.1291108875012349
 30
0.0
 10
0.1401485493106332
 20
0.1323591949000436
 30
0.0
 10
0.1475287686871937
 20
0.1336196219153729
 30
0.0
 10
0.1549608051599944
 20
0.134209360576337
 30
0.0
  0
SPLINE
  5
82
330
1F
100
AcDbEntity
  8
0
  6
Continuous
 62
     7
370
    15
100
AcDbSpline
210
0.0
220
0.0
230
1.0
 70
     8
 71
     3
 72
    13
 73
     9
 74
     0
 42
0.000000001
 43
0.00000001
 40
0.0
 40
0.0
 40
0.0
 40
0.0
 40
0.125
 40
0.125
 40
0.2499999999999999
 40
0.4999999999999999
 40
0.4999999999999999
 40
1.0
 40
1.0
 40
1.0
 40
1.0
 10
0.1581466262433874
 20
0.0474700806500185
 30
0.0
 10
0.1599419186306302
 20
0.0479678114413927
 30
0.0
 10
0.1618233296635108
 20
0.0480689397843825
 30
0.0
 10
0.1655467036996613
 20
0.0481861017814086
 30
0.0
 10
0.1711399129309598
 20
0.0480089167467642
 30
0.0
 10
0.1766685318781164
 20
0.0470847868711321
 30
0.0
 10
0.1875518014565666
 20
0.0445521505525768
 30
0.0
 10
0.1945734724298341
 20
0.0419536026791879
 30
0.0
 10
0.2013046741476144
 20
0.0387483131047761
 30
0.0
  0
SPLINE
  5
89
330
1F
100
AcDbEntity
  8
0
  6
Continuous
 62
     7
370
    15
100
AcDbSpline
210
0.0
220
0.0
230
1.0
 70
     8
 71
     3
 72
    13
 73
     9
 74
     0
 42
0.000000001
 43
0.00000001
 40
0.0
 40
0.0
 40
0.0
 40
0.0
 40
0.1250000000000008
 40
0.1250000000000008
 40
0.2500000000000017
 40
0.5000000000000018
 40
0.5000000000000018
 40
1.0
 40
1.0
 40
1.0
 40
1.0
 10
0.1606940361745856
 20
-0.0379630173590818
 30
0.0
 10
0.1624976703848456
 20
-0.0384296160431272
 30
0.0
 10
0.1641775843057756
 20
-0.0392827418454959
 30
0.0
 10
0.1674607018073862
 20
-0.0410429635977884
 30
0.0
 10
0.1722159705730507
 20
-0.0439930149546104
 30
0.0
 10
0.1765418300913159
 20
-0.0475576443768821
 30
0.0
 10
0.1847006998632099
 20
-0.055192606556523
 30
0.0
 10
0.1894823713663816
 20
-0.0609538505144618
 30
0.0
 10
0.1937091182647706
 20
-0.0670953135712779
 30
0.0
  0
SPLINE
  5
90
330
1F
100
AcDbEntity
  8
0
  6
Continuous
 62
     7
370
    15
100
AcDbSpline
210
0.0
220
0.0
230
1.0
 70
     8
 71
     3
 72
    13
 73
     9
 74
     0
 42
0.000000001
 43
0.00000001
 40
0.0
 40
0.0
 40
0.0
 40
0.0
 40
0.1249999999999997
 40
0.1249999999999997
 40
0.2499999999999994
 40
0.4999999999999999
 40
0.4999999999999999
 40
1.0
 40
1.0
 40
1.0
 40
1.0
 10
0.1201836088843072
 20
-0.1132239555245657
 30
0.0
 10
0.1215123025875047
 20
-0.114529858943451
 30
0.0
 10
0.1225405878180165
 20
-0.1161086445213917
 30
0.0
 10
0.1245037401018745
 20
-0.1192746000259761
 30
0.0
 10
0.1271468979763517
 20
-0.1242070538262849
 30
0.0
 10
0.1291108875012364
 20
-0.1294570432201823
 30
0.0
 10
0.132359194900045
 20
-0.1401485493106319
 30
0.0
 10
0.1336196219153746
 20
-0.1475287686871924
 30
0.0
 10
0.1342093605763386
 20
-0.1549608051599931
 30
0.0
  0
SPLINE
  5
97
330
1F
100
AcDbEntity
  8
0
  6
Continuous
 62
     7
370
    15
100
AcDbSpline
210
0.0
220
0.0
230
1.0
 70
     8
 71
     3
 72
    13
 73
     9
 74
     0
 42
0.000000001
 43
0.00000001
 40
0.0
 40
0.0
 40
0.0
 40
0.0
 40
0.1249999999999992
 40
0.1249999999999992
 40
0.2499999999999983
 40
0.4999999999999989
 40
0.4999999999999989
 40
1.0
 40
1.0
 40
1.0
 40
1.0
 10
0.0474700806500202
 20
-0.158146626243387
 30
0.0
 10
0.0479678114413946
 20
-0.1599419186306293
 30
0.0
 10
0.0480689397843842
 20
-0.1618233296635105
 30
0.0
 10
0.0481861017814105
 20
-0.1655467036996608
 30
0.0
 10
0.0480089167467661
 20
-0.1711399129309596
 30
0.0
 10
0.0470847868711341
 20
-0.1766685318781163
 30
0.0
 10
0.0445521505525787
 20
-0.1875518014565655
 30
0.0
 10
0.04195360267919
 20
-0.1945734724298341
 30
0.0
 10
0.0387483131047782
 20
-0.2013046741476142
 30
0.0
  0
SPLINE
  5
9E
330
1F
100
AcDbEntity
  8
0
  6
Continuous
 62
     7
370
    15
100
AcDbSpline
210
0.0
220
0.0
230
1.0
 70
     8
 71
     3
 72
    13
 73
     9
 74
     0
 42
0.000000001
 43
0.00000001
 40
0.0
 40
0.0
 40
0.0
 40
0.0
 40
0.1250000000000006
 40
0.1250000000000006
 40
0.2500000000000012
 40
0.5000000000000002
 40
0.5000000000000002
 40
1.0
 40
1.0
 40
1.0
 40
1.0
 10
-0.03796301735908
 20
-0.1606940361745861
 30
0.0
 10
-0.0384296160431254
 20
-0.1624976703848461
 30
0.0
 10
-0.0392827418454941
 20
-0.1641775843057761
 30
0.0
 10
-0.0410429635977866
 20
-0.1674607018073866
 30
0.0
 10
-0.0439930149546085
 20
-0.1722159705730514
 30
0.0
 10
-0.0475576443768801
 20
-0.1765418300913166
 30
0.0
 10
-0.0551926065565212
 20
-0.1847006998632105
 30
0.0
 10
-0.0609538505144599
 20
-0.1894823713663823
 30
0.0
 10
-0.0670953135712758
 20
-0.1937091182647714
 30
0.0
  0
SPLINE
  5
A5
330
1F
100
AcDbEntity
  8
0
  6
Continuous
 62
     7
370
    15
100
AcDbSpline
210
0.0
220
0.0
230
1.0
 70
     8
 71
     3
 72
    13
 73
     9
 74
     0
 42
0.000000001
 43
0.00000001
 40
0.0
 40
0.0
 40
0.0
 40
0.0
 40
0.1250000000000001
 40
0.1250000000000001
 40
0.2500000000000003
 40
0.5000000000000006
 40
0.5000000000000006
 40
1.0
 40
1.0
 40
1.0
 40
1.0
 10
-0.1132239555245661
 20
-0.1201836088843069
 30
0.0
 10
-0.1145298589434517
 20
-0.1215123025875041
 30
0.0
 10
-0.116108644521392
 20
-0.1225405878180162
 30
0.0
 10
-0.1192746000259767
 20
-0.1245037401018743
 30
0.0
 10
-0.1242070538262854
 20
-0.1271468979763513
 30
0.0
 10
-0.1294570432201829
 20
-0.1291108875012359
 30
0.0
 10
-0.1401485493106318
 20
-0.1323591949000449
 30
0.0
 10
-0.1475287686871926
 20
-0.1336196219153743
 30
0.0
 10
-0.1549608051599935
 20
-0.1342093605763382
 30
0.0
  0
SPLINE
  5
AC
330
1F
100
AcDbEntity
  8
0
  6
Continuous
 62
     7
370
    15
100
AcDbSpline
210
0.0
220
0.0
230
1.0
 70
     8
 71
     3
 72
    13
 73
     9
 74
     0
 42
0.000000001
 43
0.00000001
 40
0.0
 40
0.0
 40
0.0
 40
0.0
 40
0.125
 40
0.125
 40
0.2500000000000001
 40
0.5000000000000001
 40
0.5000000000000001
 40
1.0
 40
1.0
 40
1.0
 40
1.0
 10
-0.1581466262433871
 20
-0.0474700806500198
 30
0.0
 10
-0.1599419186306295
 20
-0.0479678114413941
 30
0.0
 10
-0.1618233296635107
 20
-0.0480689397843837
 30
0.0
 10
-0.1655467036996607
 20
-0.04818610178141
 30
0.0
 10
-0.1711399129309602
 20
-0.0480089167467655
 30
0.0
 10
-0.1766685318781162
 20
-0.0470847868711335
 30
0.0
 10
-0.1875518014565664
 20
-0.0445521505525782
 30
0.0
 10
-0.1945734724298343
 20
-0.0419536026791894
 30
0.0
 10
-0.2013046741476142
 20
-0.0387483131047776
 30
0.0
  0
SPLINE
  5
B3
330
1F
100
AcDbEntity
  8
0
  6
Continuous
 62
     7
370
    15
100
AcDbSpline
210
0.0
220
0.0
230
1.0
 70
     8
 71
     3
 72
    13
 73
     9
 74
     0
 42
0.000000001
 43
0.00000001
 40
0.0
 40
0.0
 40
0.0
 40
0.0
 40
0.1250000000000008
 40
0.1250000000000008
 40
0.2500000000000017
 40
0.5000000000000018
 40
0.5000000000000018
 40
1.0
 40
1.0
 40
1.0
 40
1.0
 10
-0.1606940361745856
 20
0.0379630173590816
 30
0.0
 10
-0.1624976703848456
 20
0.038429616043127
 30
0.0
 10
-0.1641775843057756
 20
0.0392827418454958
 30
0.0
 10
-0.1674607018073862
 20
0.0410429635977882
 30
0.0
 10
-0.1722159705730507
 20
0.0439930149546103
 30
0.0
 10
-0.1765418300913159
 20
0.0475576443768819
 30
0.0
 10
-0.1847006998632099
 20
0.0551926065565229
 30
0.0
 10
-0.1894823713663816
 20
0.0609538505144617
 30
0.0
 10
-0.1937091182647706
 20
0.0670953135712778
 30
0.0
  0
SPLINE
  5
BA
330
1F
100
AcDbEntity
  8
0
  6
Continuous
 62
     7
370
    15
100
AcDbSpline
210
0.0
220
0.0
230
1.0
 70
     8
 71
     3
 72
    13
 73
     9
 74
     0
 42
0.000000001
 43
0.00000001
 40
0.0
 40
0.0
 40
0.0
 40
0.0
 40
0.1250000000000001
 40
0.1250000000000001
 40
0.2500000000000002
 40
0.4999999999999999
 40
0.4999999999999999
 40
1.0
 40
1.0
 40
1.0
 40
1.0
 10
-0.1201836088843065
 20
0.1132239555245664
 30
0.0
 10
-0.1215123025875036
 20
0.1145298589434522
 30
0.0
 10
-0.1225405878180158
 20
0.1161086445213924
 30
0.0
 10
-0.1245037401018737
 20
0.119274600025977
 30
0.0
 10
-0.127146897976351
 20
0.1242070538262856
 30
0.0
 10
-0.1291108875012356
 20
0.129457043220183
 30
0.0
 10
-0.1323591949000437
 20
0.1401485493106327
 30
0.0
 10
-0.1336196219153735
 20
0.1475287686871931
 30
0.0
 10
-0.1342093605763376
 20
0.1549608051599939
 30
0.0
  0
SPLINE
  5
C1
330
1F
100
AcDbEntity
  8
0
  6
Continuous
 62
     7
370
    15
100
AcDbSpline
210
0.0
220
0.0
230
1.0
 70
     8
 71
     3
 72
    13
 73
     9
 74
     0
 42
0.000000001
 43
0.00000001
 40
0.0
 40
0.0
 40
0.0
 40
0.0
 40
0.1249999999999991
 40
0.1249999999999991
 40
0.2499999999999982
 40
0.4999999999999988
 40
0.4999999999999988
 40
1.0
 40
1.0
 40
1.0
 40
1.0
 10
-0.0474700806500191
 20
0.1581466262433872
 30
0.0
 10
-0.0479678114413936
 20
0.1599419186306301
 30
0.0
 10
-0.0480689397843832
 20
0.1618233296635105
 30
0.0
 10
-0.0481861017814093
 20
0.1655467036996613
 30
0.0
 10
-0.0480089167467648
 20
0.1711399129309598
 30
0.0
 10
-0.0470847868711329
 20
0.1766685318781165
 30
0.0
 10
-0.0445521505525773
 20
0.1875518014565659
 30
0.0
 10
-0.0419536026791885
 20
0.194573472429834
 30
0.0
 10
-0.0387483131047768
 20
0.2013046741476143
 30
0.0
  0
SPLINE
  5
C3
330
1F
100
AcDbEntity
  8
0
  6
Continuous
 62
     7
370
    15
100
AcDbSpline
210
0.0
220
0.0
230
1.0
 70
     8
 71
     3
 72
    14
 73
    10
 74
     0
 42
0.000000001
 43
0.00000001
 40
0.0
 40
0.0
 40
0.0
 40
0.0
 40
0.5000000000000001
 40
0.5000000000000001
 40
0.7500000000000012
 40
0.7500000000000012
 40
0.8750000000000007
 40
0.8750000000000007
 40
1.0
 40
1.0
 40
1.0
 40
1.0
 10
-0.0207611893929414
 20
0.2039460139770655
 30
0.0
 10
-0.0157560457983257
 20
0.198420482743007
 30
0.0
 10
-0.0112485211204819
 20
0.192442311150809
 30
0.0
 10
-0.0056939433682431
 20
0.182746617806153
 30
0.0
 10
-0.0040442405985616
 20
0.1793935942799569
 30
0.0
 10
-0.0020342387705483
 20
0.1741796694826883
 30
0.0
 10
-0.0014416767207241
 20
0.1724109424570965
 30
0.0
 10
-0.0004834490140333
 20
0.1688110756805691
 30
0.0
 10
-0.0000394157611788
 20
0.1669800189128082
 30
0.0
 10
-0.0000000000000006
 20
0.1651174247288424
 30
0.0
  0
SPLINE
  5
C9
330
1F
100
AcDbEntity
  8
0
  6
Continuous
 62
     7
370
    15
100
AcDbSpline
210
0.0
220
0.0
230
1.0
 70
     8
 71
     3
 72
    13
 73
     9
 74
     0
 42
0.000000001
 43
0.00000001
 40
0.0
 40
0.0
 40
0.0
 40
0.0
 40
0.1249999999999998
 40
0.1249999999999998
 40
0.2499999999999996
 40
0.4999999999999991
 40
0.4999999999999991
 40
1.0
 40
1.0
 40
1.0
 40
1.0
 10
0.0379630173590812
 20
0.1606940361745856
 30
0.0
 10
0.0384296160431265
 20
0.1624976703848457
 30
0.0
 10
0.0392827418454953
 20
0.1641775843057755
 30
0.0
 10
0.0410429635977877
 20
0.1674607018073865
 30
0.0
 10
0.0439930149546096
 20
0.1722159705730509
 30
0.0
 10
0.0475576443768814
 20
0.1765418300913161
 30
0.0
 10
0.0551926065565223
 20
0.18470069986321
 30
0.0
 10
0.0609538505144611
 20
0.1894823713663819
 30
0.0
 10
0.0670953135712772
 20
0.1937091182647709
 30
0.0
  0
SPLINE
  5
CC
330
1F
100
AcDbEntity
  8
0
  6
Continuous
 62
     7
370
    15
100
AcDbSpline
210
0.0
220
0.0
230
1.0
 70
     8
 71
     3
 72
    14
 73
    10
 74
     0
 42
0.000000001
 43
0.00000001
 40
0.0
 40
0.0
 40
0.0
 40
0.0
 40
0.4999999999999993
 40
0.4999999999999993
 40
0.7500000000000001
 40
0.7500000000000001
 40
0.875
 40
0.875
 40
1.0
 40
1.0
 40
1.0
 40
1.0
 10
-0.1870030238011859
 20
0.083993289561465
 30
0.0
 10
-0.179715201585779
 20
0.0855651054469618
 30
0.0
 10
-0.1722841907798313
 20
0.0864796505300609
 30
0.0
 10
-0.1611101851599359
 20
0.0864422092984676
 30
0.0
 10
-0.1573815302219223
 20
0.0861943820426071
 30
0.0
 10
-0.1518611379800598
 20
0.0853281322886858
 30
0.0
 10
-0.150033094418625
 20
0.0849569425643562
 30
0.0
 10
-0.1464364044865671
 20
0.0839868587126968
 30
0.0
 10
-0.1446286461834875
 20
0.0834558744059135
 30
0.0
 10
-0.1429958844226429
 20
0.0825587123644203
 30
0.0
  0
SPLINE
  5
CD
330
1F
100
AcDbEntity
  8
0
  6
Continuous
 62
     7
370
    15
100
AcDbSpline
210
0.0
220
0.0
230
1.0
 70
     8
 71
     3
 72
    14
 73
    10
 74
     0
 42
0.000000001
 43
0.00000001
 40
0.0
 40
0.0
 40
0.0
 40
0.0
 40
0.5000000000000003
 40
0.5000000000000003
 40
0.750000000000001
 40
0.750000000000001
 40
0.8750000000000004
 40
0.8750000000000004
 40
1.0
 40
1.0
 40
1.0
 40
1.0
 10
0.1662418344082446
 20
0.1199527244155996
 30
0.0
 10
0.1639591557874535
 20
0.1128553772960441
 30
0.0
 10
0.16103566965935
 20
0.1059626606207476
 30
0.0
 10
0.1554162417916925
 20
0.0963044085076844
 30
0.0
 10
0.1533372896233607
 20
0.0931992122373488
 30
0.0
 10
0.1498268992095114
 20
0.0888515371940019
 30
0.0
 10
0.148591417697901
 20
0.0874539998927396
 30
0.0
 10
0.1459529554725337
 20
0.0848242169678715
 30
0.0
 10
0.1445892304223086
 20
0.083524144506894
 30
0.0
 10
0.1429958844226424
 20
0.0825587123644213
 30
0.0
  0
SPLINE
  5
CE
330
1F
100
AcDbEntity
  8
0
  6
Continuous
 62
     7
370
    15
100
AcDbSpline
210
0.0
220
0.0
230
1.0
 70
     8
 71
     3
 72
    14
 73
    10
 74
     0
 42
0.000000001
 43
0.00000001
 40
0.0
 40
0.0
 40
0.0
 40
0.0
 40
0.5000000000000012
 40
0.5000000000000012
 40
0.7500000000000007
 40
0.7500000000000007
 40
0.8750000000000003
 40
0.8750000000000003
 40
1.0
 40
1.0
 40
1.0
 40
1.0
 10
0.1870030238011864
 20
-0.0839932895614639
 30
0.0
 10
0.1797152015857795
 20
-0.0855651054469608
 30
0.0
 10
0.172284190779832
 20
-0.0864796505300599
 30
0.0
 10
0.1611101851599364
 20
-0.0864422092984666
 30
0.0
 10
0.1573815302219229
 20
-0.0861943820426062
 30
0.0
 10
0.1518611379800603
 20
-0.0853281322886849
 30
0.0
 10
0.1500330944186257
 20
-0.0849569425643554
 30
0.0
 10
0.1464364044865675
 20
-0.0839868587126958
 30
0.0
 10
0.1446286461834883
 20
-0.0834558744059126
 30
0.0
 10
0.1429958844226435
 20
-0.0825587123644195
 30
0.0
  0
SPLINE
  5
CF
330
1F
100
AcDbEntity
  8
0
  6
Continuous
 62
     7
370
    15
100
AcDbSpline
210
0.0
220
0.0
230
1.0
 70
     8
 71
     3
 72
    14
 73
    10
 74
     0
 42
0.000000001
 43
0.00000001
 40
0.0
 40
0.0
 40
0.0
 40
0.0
 40
0.4999999999999994
 40
0.4999999999999994
 40
0.7499999999999991
 40
0.7499999999999991
 40
0.8749999999999996
 40
0.8749999999999996
 40
1.0
 40
1.0
 40
1.0
 40
1.0
 10
0.0839932895614657
 20
0.1870030238011855
 30
0.0
 10
0.0855651054469625
 20
0.1797152015857784
 30
0.0
 10
0.0864796505300619
 20
0.1722841907798315
 30
0.0
 10
0.0864422092984682
 20
0.1611101851599352
 30
0.0
 10
0.0861943820426078
 20
0.1573815302219221
 30
0.0
 10
0.0853281322886863
 20
0.1518611379800593
 30
0.0
 10
0.0849569425643568
 20
0.1500330944186245
 30
0.0
 10
0.0839868587126973
 20
0.1464364044865668
 30
0.0
 10
0.083455874405914
 20
0.1446286461834871
 30
0.0
 10
0.0825587123644209
 20
0.1429958844226426
 30
0.0
  0
SPLINE
  5
D0
330
1F
100
AcDbEntity
  8
0
  6
Continuous
 62
     7
370
    15
100
AcDbSpline
210
0.0
220
0.0
230
1.0
 70
     8
 71
     3
 72
    14
 73
    10
 74
     0
 42
0.000000001
 43
0.00000001
 40
0.0
 40
0.0
 40
0.0
 40
0.0
 40
0.5000000000000001
 40
0.5000000000000001
 40
0.7500000000000012
 40
0.7500000000000012
 40
0.8750000000000007
 40
0.8750000000000007
 40
1.0
 40
1.0
 40
1.0
 40
1.0
 10
0.0207611893929428
 20
-0.2039460139770655
 30
0.0
 10
0.0157560457983271
 20
-0.1984204827430069
 30
0.0
 10
0.0112485211204833
 20
-0.192442311150809
 30
0.0
 10
0.0056939433682444
 20
-0.1827466178061531
 30
0.0
 10
0.0040442405985629
 20
-0.179393594279957
 30
0.0
 10
0.0020342387705495
 20
-0.1741796694826885
 30
0.0
 10
0.0014416767207253
 20
-0.1724109424570966
 30
0.0
 10
0.0004834490140344
 20
-0.1688110756805692
 30
0.0
 10
0.00003941576118
 20
-0.1669800189128084
 30
0.0
 10
0.0000000000000017
 20
-0.1651174247288425
 30
0.0
  0
SPLINE
  5
D1
330
1F
100
AcDbEntity
  8
0
  6
Continuous
 62
     7
370
    15
100
AcDbSpline
210
0.0
220
0.0
230
1.0
 70
     8
 71
     3
 72
    14
 73
    10
 74
     0
 42
0.000000001
 43
0.00000001
 40
0.0
 40
0.0
 40
0.0
 40
0.0
 40
0.5000000000000011
 40
0.5000000000000011
 40
0.7500000000000017
 40
0.7500000000000017
 40
0.8750000000000008
 40
0.8750000000000008
 40
1.0
 40
1.0
 40
1.0
 40
1.0
 10
-0.2039460139770656
 20
-0.0207611893929407
 30
0.0
 10
-0.1984204827430068
 20
-0.0157560457983251
 30
0.0
 10
-0.192442311150809
 20
-0.0112485211204813
 30
0.0
 10
-0.1827466178061532
 20
-0.0056939433682425
 30
0.0
 10
-0.1793935942799569
 20
-0.0040442405985611
 30
0.0
 10
-0.1741796694826884
 20
-0.0020342387705478
 30
0.0
 10
-0.1724109424570963
 20
-0.0014416767207236
 30
0.0
 10
-0.1688110756805693
 20
-0.0004834490140327
 30
0.0
 10
-0.1669800189128083
 20
-0.0000394157611783
 30
0.0
 10
-0.1651174247288424
 20
-0.0000000000000001
 30
0.0
  0
SPLINE
  5
D2
330
1F
100
AcDbEntity
  8
0
  6
Continuous
 62
     7
370
    15
100
AcDbSpline
210
0.0
220
0.0
230
1.0
 70
     8
 71
     3
 72
    14
 73
    10
 74
     0
 42
0.000000001
 43
0.00000001
 40
0.0
 40
0.0
 40
0.0
 40
0.0
 40
0.4999999999999991
 40
0.4999999999999991
 40
0.7499999999999992
 40
0.7499999999999992
 40
0.8749999999999997
 40
0.8749999999999997
 40
1.0
 40
1.0
 40
1.0
 40
1.0
 10
0.1199527244156014
 20
-0.1662418344082434
 30
0.0
 10
0.1128553772960461
 20
-0.1639591557874526
 30
0.0
 10
0.1059626606207492
 20
-0.161035669659349
 30
0.0
 10
0.0963044085076862
 20
-0.1554162417916916
 30
0.0
 10
0.0931992122373505
 20
-0.1533372896233597
 30
0.0
 10
0.0888515371940035
 20
-0.1498268992095106
 30
0.0
 10
0.0874539998927412
 20
-0.1485914176979
 30
0.0
 10
0.0848242169678731
 20
-0.1459529554725329
 30
0.0
 10
0.0835241445068955
 20
-0.144589230422308
 30
0.0
 10
0.0825587123644229
 20
-0.1429958844226416
 30
0.0
  0
SPLINE
  5
D3
330
1F
100
AcDbEntity
  8
0
  6
Continuous
 62
     7
370
    15
100
AcDbSpline
210
0.0
220
0.0
230
1.0
 70
     8
 71
     3
 72
    14
 73
    10
 74
     0
 42
0.000000001
 43
0.00000001
 40
0.0
 40
0.0
 40
0.0
 40
0.0
 40
0.5000000000000003
 40
0.5000000000000003
 40
0.7500000000000004
 40
0.7500000000000004
 40
0.8750000000000002
 40
0.8750000000000002
 40
1.0
 40
1.0
 40
1.0
 40
1.0
 10
-0.1199527244156003
 20
0.1662418344082441
 30
0.0
 10
-0.1128553772960451
 20
0.1639591557874529
 30
0.0
 10
-0.1059626606207479
 20
0.1610356696593496
 30
0.0
 10
-0.0963044085076852
 20
0.1554162417916922
 30
0.0
 10
-0.0931992122373493
 20
0.1533372896233604
 30
0.0
 10
-0.0888515371940025
 20
0.149826899209511
 30
0.0
 10
-0.0874539998927401
 20
0.1485914176979005
 30
0.0
 10
-0.0848242169678722
 20
0.1459529554725335
 30
0.0
 10
-0.0835241445068946
 20
0.1445892304223083
 30
0.0
 10
-0.0825587123644219
 20
0.142995884422642
 30
0.0
  0
SPLINE
  5
D4
330
1F
100
AcDbEntity
  8
0
  6
Continuous
 62
     7
370
    15
100
AcDbSpline
210
0.0
220
0.0
230
1.0
 70
     8
 71
     3
 72
    14
 73
    10
 74
     0
 42
0.000000001
 43
0.00000001
 40
0.0
 40
0.0
 40
0.0
 40
0.0
 40
0.5000000000000011
 40
0.5000000000000011
 40
0.7500000000000017
 40
0.7500000000000017
 40
0.8750000000000008
 40
0.8750000000000008
 40
1.0
 40
1.0
 40
1.0
 40
1.0
 10
0.2039460139770656
 20
0.0207611893929406
 30
0.0
 10
0.1984204827430068
 20
0.015756045798325
 30
0.0
 10
0.192442311150809
 20
0.0112485211204812
 30
0.0
 10
0.1827466178061532
 20
0.0056939433682424
 30
0.0
 10
0.1793935942799569
 20
0.0040442405985609
 30
0.0
 10
0.1741796694826884
 20
0.0020342387705476
 30
0.0
 10
0.1724109424570963
 20
0.0014416767207234
 30
0.0
 10
0.1688110756805693
 20
0.0004834490140326
 30
0.0
 10
0.1669800189128083
 20
0.0000394157611781
 30
0.0
 10
0.1651174247288424
 20
-0.0000000000000001
 30
0.0
  0
SPLINE
  5
D5
330
1F
100
AcDbEntity
  8
0
  6
Continuous
 62
     7
370
    15
100
AcDbSpline
210
0.0
220
0.0
230
1.0
 70
     8
 71
     3
 72
    14
 73
    10
 74
     0
 42
0.000000001
 43
0.00000001
 40
0.0
 40
0.0
 40
0.0
 40
0.0
 40
0.5000000000000001
 40
0.5000000000000001
 40
0.7500000000000002
 40
0.7500000000000002
 40
0.8750000000000001
 40
0.8750000000000001
 40
1.0
 40
1.0
 40
1.0
 40
1.0
 10
-0.0839932895614645
 20
-0.1870030238011862
 30
0.0
 10
-0.0855651054469614
 20
-0.1797152015857794
 30
0.0
 10
-0.0864796505300607
 20
-0.1722841907798324
 30
0.0
 10
-0.0864422092984669
 20
-0.1611101851599359
 30
0.0
 10
-0.0861943820426067
 20
-0.1573815302219226
 30
0.0
 10
-0.0853281322886854
 20
-0.15186113798006
 30
0.0
 10
-0.0849569425643557
 20
-0.1500330944186253
 30
0.0
 10
-0.0839868587126964
 20
-0.1464364044865675
 30
0.0
 10
-0.083455874405913
 20
-0.1446286461834881
 30
0.0
 10
-0.0825587123644199
 20
-0.1429958844226433
 30
0.0
  0
SPLINE
  5
D6
330
1F
100
AcDbEntity
  8
0
  6
Continuous
 62
     7
370
    15
100
AcDbSpline
210
0.0
220
0.0
230
1.0
 70
     8
 71
     3
 72
    14
 73
    10
 74
     0
 42
0.000000001
 43
0.00000001
 40
0.0
 40
0.0
 40
0.0
 40
0.0
 40
0.4999999999999988
 40
0.4999999999999988
 40
0.7499999999999992
 40
0.7499999999999992
 40
0.8749999999999997
 40
0.8749999999999997
 40
1.0
 40
1.0
 40
1.0
 40
1.0
 10
-0.1662418344082438
 20
-0.1199527244156009
 30
0.0
 10
-0.163959155787453
 20
-0.1128553772960455
 30
0.0
 10
-0.1610356696593493
 20
-0.1059626606207489
 30
0.0
 10
-0.1554162417916919
 20
-0.0963044085076856
 30
0.0
 10
-0.1533372896233602
 20
-0.0931992122373498
 30
0.0
 10
-0.1498268992095108
 20
-0.0888515371940031
 30
0.0
 10
-0.1485914176979003
 20
-0.0874539998927409
 30
0.0
 10
-0.1459529554725332
 20
-0.0848242169678725
 30
0.0
 10
-0.1445892304223083
 20
-0.0835241445068951
 30
0.0
 10
-0.1429958844226418
 20
-0.0825587123644225
 30
0.0
  0
LINE
  5
D7
330
1F
100
AcDbEntity
  8
0
  6
Continuous
 62
     7
370
    15
100
AcDbLine
 10
0.1132239555
 20
0.1201836089
 30
0.0
 11
0.0980927772
 21
0.1041223468
 31
0.0
  0
LINE
  5
D8
330
1F
100
AcDbEntity
  8
0
  6
Continuous
 62
     7
370
    15
100
AcDbLine
 10
0.1238860042
 20
0.0715256179
 30
0.0
 11
0.1429958844
 21
0.0825587124
 31
0.0
  0
LINE
  5
D9
330
1F
100
AcDbEntity
  8
0
  6
Continuous
 62
     7
370
    15
100
AcDbLine
 10
0.1581466262
 20
0.0474700807
 30
0.0
 11
0.1370120104
 21
0.0411262089
 31
0.0
  0
LINE
  5
DA
330
1F
100
AcDbEntity
  8
0
  6
Continuous
 62
     7
370
    15
100
AcDbLine
 10
0.1430512357
 20
0.0
 30
0.0
 11
0.1651174247
 21
0.0
 31
0.0
  0
LINE
  5
DB
330
1F
100
AcDbEntity
  8
0
  6
Continuous
 62
     7
370
    15
100
AcDbLine
 10
0.1606940362
 20
-0.0379630174
 30
0.0
 11
0.139218986
 21
-0.0328896635
 31
0.0
  0
LINE
  5
DC
330
1F
100
AcDbEntity
  8
0
  6
Continuous
 62
     7
370
    15
100
AcDbLine
 10
0.1238860042
 20
-0.0715256179
 30
0.0
 11
0.1429958844
 21
-0.0825587124
 31
0.0
  0
LINE
  5
DD
330
1F
100
AcDbEntity
  8
0
  6
Continuous
 62
     7
370
    15
100
AcDbLine
 10
0.1201836089
 20
-0.1132239555
 30
0.0
 11
0.1041223468
 21
-0.0980927772
 31
0.0
  0
LINE
  5
DE
330
1F
100
AcDbEntity
  8
0
  6
Continuous
 62
     7
370
    15
100
AcDbLine
 10
0.0715256179
 20
-0.1238860042
 30
0.0
 11
0.0825587124
 21
-0.1429958844
 31
0.0
  0
LINE
  5
DF
330
1F
100
AcDbEntity
  8
0
  6
Continuous
 62
     7
370
    15
100
AcDbLine
 10
0.0474700807
 20
-0.1581466262
 30
0.0
 11
0.0411262089
 21
-0.1370120104
 31
0.0
  0
LINE
  5
E0
330
1F
100
AcDbEntity
  8
0
  6
Continuous
 62
     7
370
    15
100
AcDbLine
 10
0.0
 20
-0.1430512357
 30
0.0
 11
0.0
 21
-0.1651174247
 31
0.0
  0
LINE
  5
E1
330
1F
100
AcDbEntity
  8
0
  6
Continuous
 62
     7
370
    15
100
AcDbLine
 10
-0.0379630174
 20
-0.1606940362
 30
0.0
 11
-0.0328896635
 21
-0.139218986
 31
0.0
  0
LINE
  5
E2
330
1F
100
AcDbEntity
  8
0
  6
Continuous
 62
     7
370
    15
100
AcDbLine
 10
-0.0715256179
 20
-0.1238860042
 30
0.0
 11
-0.0825587124
 21
-0.1429958844
 31
0.0
  0
LINE
  5
E3
330
1F
100
AcDbEntity
  8
0
  6
Continuous
 62
     7
370
    15
100
AcDbLine
 10
-0.1132239555
 20
-0.1201836089
 30
0.0
 11
-0.0980927772
 21
-0.1041223468
 31
0.0
  0
LINE
  5
E4
330
1F
100
AcDbEntity
  8
0
  6
Continuous
 62
     7
370
    15
100
AcDbLine
 10
-0.1238860042
 20
-0.0715256179
 30
0.0
 11
-0.1429958844
 21
-0.0825587124
 31
0.0
  0
LINE
  5
E5
330
1F
100
AcDbEntity
  8
0
  6
Continuous
 62
     7
370
    15
100
AcDbLine
 10
-0.1581466262
 20
-0.0474700807
 30
0.0
 11
-0.1370120104
 21
-0.0411262089
 31
0.0
  0
LINE
  5
E6
330
1F
100
AcDbEntity
  8
0
  6
Continuous
 62
     7
370
    15
100
AcDbLine
 10
-0.1430512357
 20
0.0
 30
0.0
 11
-0.1651174247
 21
0.0
 31
0.0
  0
LINE
  5
E7
330
1F
100
AcDbEntity
  8
0
  6
Continuous
 62
     7
370
    15
100
AcDbLine
 10
-0.1606940362
 20
0.0379630174
 30
0.0
 11
-0.139218986
 21
0.0328896635
 31
0.0
  0
LINE
  5
E8
330
1F
100
AcDbEntity
  8
0
  6
Continuous
 62
     7
370
    15
100
AcDbLine
 10
-0.1238860042
 20
0.0715256179
 30
0.0
 11
-0.1429958844
 21
0.0825587124
 31
0.0
  0
LINE
  5
E9
330
1F
100
AcDbEntity
  8
0
  6
Continuous
 62
     7
370
    15
100
AcDbLine
 10
-0.1201836089
 20
0.1132239555
 30
0.0
 11
-0.1041223468
 21
0.0980927772
 31
0.0
  0
LINE
  5
EA
330
1F
100
AcDbEntity
  8
0
  6
Continuous
 62
     7
370
    15
100
AcDbLine
 10
-0.0715256179
 20
0.1238860042
 30
0.0
 11
-0.0825587124
 21
0.1429958844
 31
0.0
  0
LINE
  5
EB
330
1F
100
AcDbEntity
  8
0
  6
Continuous
 62
     7
370
    15
100
AcDbLine
 10
-0.0474700807
 20
0.1581466262
 30
0.0
 11
-0.0411262089
 21
0.1370120104
 31
0.0
  0
LINE
  5
EC
330
1F
100
AcDbEntity
  8
0
  6
Continuous
 62
     7
370
    15
100
AcDbLine
 10
0.0
 20
0.1430512357
 30
0.0
 11
0.0
 21
0.1651174247
 31
0.0
  0
LINE
  5
ED
330
1F
100
AcDbEntity
  8
0
  6
Continuous
 62
     7
370
    15
100
AcDbLine
 10
0.0379630174
 20
0.1606940362
 30
0.0
 11
0.0328896635
 21
0.139218986
 31
0.0
  0
LINE
  5
EE
330
1F
100
AcDbEntity
  8
0
  6
Continuous
 62
     7
370
    15
100
AcDbLine
 10
0.0715256179
 20
0.1238860042
 30
0.0
 11
0.0825587124
 21
0.1429958844
 31
0.0
  0
ARC
  5
EF
330
1F
100
AcDbEntity
  8
0
  6
Continuous
 62
     7
370
    15
100
AcDbCircle
 10
0.0749897195
 20
0.1218860042
 30
0.0
 40
0.0040000000000001
100
AcDbArc
 50
150.0
 51
238.3983122262
  0
ARC
  5
F0
330
1F
100
AcDbEntity
  8
0
  6
Continuous
 62
     7
370
    15
100
AcDbCircle
 10
0.0
 20
0.0
 30
0.0
 40
0.139107148818887
100
AcDbArc
 50
48.3096043574
 51
58.3983122262
  0
ARC
  5
F1
330
1F
100
AcDbEntity
  8
0
  6
Continuous
 62
     7
370
    15
100
AcDbCircle
 10
0.0951813071
 20
0.106865218
 30
0.0
 40
0.004
100
AcDbArc
 50
228.3096043575
 51
316.7079165837
  0
ARC
  5
F2
330
1F
100
AcDbEntity
  8
0
  6
Continuous
 62
     7
370
    15
100
AcDbCircle
 10
0.0
 20
0.0
 30
0.0
 40
0.2050000087856875
100
AcDbArc
 50
35.8125429741
 51
40.8953736096
  0
ARC
  5
F3
330
1F
100
AcDbEntity
  8
0
  6
Continuous
 62
     7
370
    15
100
AcDbCircle
 10
0.1258860042
 20
0.0680615162
 30
0.0
 40
0.0040000000000001
100
AcDbArc
 50
120.0
 51
208.3983122262
  0
ARC
  5
F4
330
1F
100
AcDbEntity
  8
0
  6
Continuous
 62
     7
370
    15
100
AcDbCircle
 10
0.0
 20
0.0
 30
0.0
 40
0.1391071488188909
100
AcDbArc
 50
18.3096043574
 51
28.3983122262
  0
ARC
  5
F5
330
1F
100
AcDbEntity
  8
0
  6
Continuous
 62
     7
370
    15
100
AcDbCircle
 10
0.1358620389
 20
0.04495734
 30
0.0
 40
0.004
100
AcDbArc
 50
198.3096043575
 51
286.7079165837
  0
ARC
  5
F6
330
1F
100
AcDbEntity
  8
0
  6
Continuous
 62
     7
370
    15
100
AcDbCircle
 10
0.0
 20
0.0
 30
0.0
 40
0.2050000087857129
100
AcDbArc
 50
5.8125429741
 51
10.8953736096
  0
ARC
  5
F7
330
1F
100
AcDbEntity
  8
0
  6
Continuous
 62
     7
370
    15
100
AcDbCircle
 10
0.1430512357
 20
-0.004
 30
0.0
 40
0.004
100
AcDbArc
 50
90.0
 51
178.3983122262
  0
ARC
  5
F8
330
1F
100
AcDbEntity
  8
0
  6
Continuous
 62
     7
370
    15
100
AcDbCircle
 10
0.0
 20
0.0
 30
0.0
 40
0.1391071488188872
100
AcDbArc
 50
348.3096043575
 51
358.3983122262
  0
ARC
  5
F9
330
1F
100
AcDbEntity
  8
0
  6
Continuous
 62
     7
370
    15
100
AcDbCircle
 10
0.1401386471
 20
-0.0289968209
 30
0.0
 40
0.0040000000000001
100
AcDbArc
 50
168.3096043574
 51
256.7079165837
  0
ARC
  5
FA
330
1F
100
AcDbEntity
  8
0
  6
Continuous
 62
     7
370
    15
100
AcDbCircle
 10
0.0
 20
0.0
 30
0.0
 40
0.2050000087857476
100
AcDbArc
 50
335.8125429741
 51
340.8953736096
  0
ARC
  5
FB
330
1F
100
AcDbEntity
  8
0
  6
Continuous
 62
     7
370
    15
100
AcDbCircle
 10
0.1218860042
 20
-0.0749897195
 30
0.0
 40
0.0040000000000001
100
AcDbArc
 50
60.0
 51
148.3983122262
  0
ARC
  5
FC
330
1F
100
AcDbEntity
  8
0
  6
Continuous
 62
     7
370
    15
100
AcDbCircle
 10
0.0
 20
0.0
 30
0.0
 40
0.1391071488188889
100
AcDbArc
 50
318.3096043575
 51
328.3983122262
  0
ARC
  5
FD
330
1F
100
AcDbEntity
  8
0
  6
Continuous
 62
     7
370
    15
100
AcDbCircle
 10
0.106865218
 20
-0.0951813071
 30
0.0
 40
0.004
100
AcDbArc
 50
138.3096043574
 51
226.7079165837
  0
ARC
  5
FE
330
1F
100
AcDbEntity
  8
0
  6
Continuous
 62
     7
370
    15
100
AcDbCircle
 10
0.0
 20
0.0
 30
0.0
 40
0.2050000087857019
100
AcDbArc
 50
305.8125429741
 51
310.8953736096
  0
ARC
  5
FF
330
1F
100
AcDbEntity
  8
0
  6
Continuous
 62
     7
370
    15
100
AcDbCircle
 10
0.0680615162
 20
-0.1258860042
 30
0.0
 40
0.0040000000000001
100
AcDbArc
 50
30.0
 51
118.3983122262
  0
ARC
  5
100
330
1F
100
AcDbEntity
  8
0
  6
Continuous
 62
     7
370
    15
100
AcDbCircle
 10
0.0
 20
0.0
 30
0.0
 40
0.1391071488188873
100
AcDbArc
 50
288.3096043575
 51
298.3983122262
  0
ARC
  5
101
330
1F
100
AcDbEntity
  8
0
  6
Continuous
 62
     7
370
    15
100
AcDbCircle
 10
0.04495734
 20
-0.1358620389
 30
0.0
 40
0.004
100
AcDbArc
 50
108.3096043574
 51
196.7079165837
  0
ARC
  5
102
330
1F
100
AcDbEntity
  8
0
  6
Continuous
 62
     7
370
    15
100
AcDbCircle
 10
0.0
 20
0.0
 30
0.0
 40
0.2050000087857035
100
AcDbArc
 50
275.8125429741
 51
280.8953736096
  0
ARC
  5
103
330
1F
100
AcDbEntity
  8
0
  6
Continuous
 62
     7
370
    15
100
AcDbCircle
 10
-0.004
 20
-0.1430512357
 30
0.0
 40
0.004
100
AcDbArc
 50
0.0
 51
88.3983122262
  0
ARC
  5
104
330
1F
100
AcDbEntity
  8
0
  6
Continuous
 62
     7
370
    15
100
AcDbCircle
 10
0.0
 20
0.0
 30
0.0
 40
0.1391071488188874
100
AcDbArc
 50
258.3096043575
 51
268.3983122262
  0
ARC
  5
105
330
1F
100
AcDbEntity
  8
0
  6
Continuous
 62
     7
370
    15
100
AcDbCircle
 10
-0.0289968209
 20
-0.1401386471
 30
0.0
 40
0.004
100
AcDbArc
 50
78.3096043574
 51
166.7079165837
  0
ARC
  5
106
330
1F
100
AcDbEntity
  8
0
  6
Continuous
 62
     7
370
    15
100
AcDbCircle
 10
0.0
 20
0.0
 30
0.0
 40
0.2050000087857081
100
AcDbArc
 50
245.8125429741
 51
250.8953736096
  0
ARC
  5
107
330
1F
100
AcDbEntity
  8
0
  6
Continuous
 62
     7
370
    15
100
AcDbCircle
 10
-0.0749897195
 20
-0.1218860042
 30
0.0
 40
0.004
100
AcDbArc
 50
330.0
 51
58.3983122262
  0
ARC
  5
108
330
1F
100
AcDbEntity
  8
0
  6
Continuous
 62
     7
370
    15
100
AcDbCircle
 10
0.0
 20
0.0
 30
0.0
 40
0.1391071488188853
100
AcDbArc
 50
228.3096043575
 51
238.3983122262
  0
ARC
  5
109
330
1F
100
AcDbEntity
  8
0
  6
Continuous
 62
     7
370
    15
100
AcDbCircle
 10
-0.0951813071
 20
-0.106865218
 30
0.0
 40
0.004
100
AcDbArc
 50
48.3096043574
 51
136.7079165837
  0
ARC
  5
10A
330
1F
100
AcDbEntity
  8
0
  6
Continuous
 62
     7
370
    15
100
AcDbCircle
 10
0.0
 20
0.0
 30
0.0
 40
0.2050000087856807
100
AcDbArc
 50
215.8125429741
 51
220.8953736096
  0
ARC
  5
10B
330
1F
100
AcDbEntity
  8
0
  6
Continuous
 62
     7
370
    15
100
AcDbCircle
 10
-0.1258860042
 20
-0.0680615162
 30
0.0
 40
0.0040000000000001
100
AcDbArc
 50
300.0
 51
28.3983122262
  0
ARC
  5
10C
330
1F
100
AcDbEntity
  8
0
  6
Continuous
 62
     7
370
    15
100
AcDbCircle
 10
0.0
 20
0.0
 30
0.0
 40
0.1391071488188876
100
AcDbArc
 50
198.3096043575
 51
208.3983122262
  0
ARC
  5
10D
330
1F
100
AcDbEntity
  8
0
  6
Continuous
 62
     7
370
    15
100
AcDbCircle
 10
-0.1358620389
 20
-0.04495734
 30
0.0
 40
0.004
100
AcDbArc
 50
18.3096043574
 51
106.7079165837
  0
ARC
  5
10E
330
1F
100
AcDbEntity
  8
0
  6
Continuous
 62
     7
370
    15
100
AcDbCircle
 10
0.0
 20
0.0
 30
0.0
 40
0.2050000087856662
100
AcDbArc
 50
185.8125429741
 51
190.8953736096
  0
ARC
  5
10F
330
1F
100
AcDbEntity
  8
0
  6
Continuous
 62
     7
370
    15
100
AcDbCircle
 10
-0.1430512357
 20
0.004
 30
0.0
 40
0.004
100
AcDbArc
 50
270.0
 51
358.3983122262
  0
ARC
  5
110
330
1F
100
AcDbEntity
  8
0
  6
Continuous
 62
     7
370
    15
100
AcDbCircle
 10
0.0
 20
0.0
 30
0.0
 40
0.1391071488188828
100
AcDbArc
 50
168.3096043574
 51
178.3983122262
  0
ARC
  5
111
330
1F
100
AcDbEntity
  8
0
  6
Continuous
 62
     7
370
    15
100
AcDbCircle
 10
-0.1401386471
 20
0.0289968209
 30
0.0
 40
0.004
100
AcDbArc
 50
348.3096043575
 51
76.7079165837
  0
ARC
  5
112
330
1F
100
AcDbEntity
  8
0
  6
Continuous
 62
     7
370
    15
100
AcDbCircle
 10
0.0
 20
0.0
 30
0.0
 40
0.2050000087857091
100
AcDbArc
 50
155.8125429741
 51
160.8953736096
  0
ARC
  5
113
330
1F
100
AcDbEntity
  8
0
  6
Continuous
 62
     7
370
    15
100
AcDbCircle
 10
-0.1218860042
 20
0.0749897195
 30
0.0
 40
0.004
100
AcDbArc
 50
240.0
 51
328.3983122262
  0
ARC
  5
114
330
1F
100
AcDbEntity
  8
0
  6
Continuous
 62
     7
370
    15
100
AcDbCircle
 10
0.0
 20
0.0
 30
0.0
 40
0.1391071488188919
100
AcDbArc
 50
138.3096043574
 51
148.3983122262
  0
ARC
  5
115
330
1F
100
AcDbEntity
  8
0
  6
Continuous
 62
     7
370
    15
100
AcDbCircle
 10
-0.106865218
 20
0.0951813071
 30
0.0
 40
0.004
100
AcDbArc
 50
318.3096043574
 51
46.7079165837
  0
ARC
  5
116
330
1F
100
AcDbEntity
  8
0
  6
Continuous
 62
     7
370
    15
100
AcDbCircle
 10
0.0
 20
0.0
 30
0.0
 40
0.2050000087856809
100
AcDbArc
 50
125.8125429741
 51
130.8953736096
  0
ARC
  5
117
330
1F
100
AcDbEntity
  8
0
  6
Continuous
 62
     7
370
    15
100
AcDbCircle
 10
-0.0680615162
 20
0.1258860042
 30
0.0
 40
0.004
100
AcDbArc
 50
210.0
 51
298.3983122262
  0
ARC
  5
118
330
1F
100
AcDbEntity
  8
0
  6
Continuous
 62
     7
370
    15
100
AcDbCircle
 10
0.0
 20
0.0
 30
0.0
 40
0.1391071488188933
100
AcDbArc
 50
108.3096043574
 51
118.3983122262
  0
ARC
  5
119
330
1F
100
AcDbEntity
  8
0
  6
Continuous
 62
     7
370
    15
100
AcDbCircle
 10
-0.04495734
 20
0.1358620389
 30
0.0
 40
0.004
100
AcDbArc
 50
288.3096043574
 51
16.7079165837
  0
ARC
  5
11A
330
1F
100
AcDbEntity
  8
0
  6
Continuous
 62
     7
370
    15
100
AcDbCircle
 10
0.0
 20
0.0
 30
0.0
 40
0.2050000087857295
100
AcDbArc
 50
95.8125429741
 51
100.8953736096
  0
ARC
  5
11B
330
1F
100
AcDbEntity
  8
0
  6
Continuous
 62
     7
370
    15
100
AcDbCircle
 10
0.004
 20
0.1430512357
 30
0.0
 40
0.004
100
AcDbArc
 50
180.0
 51
268.3983122262
  0
ARC
  5
11C
330
1F
100
AcDbEntity
  8
0
  6
Continuous
 62
     7
370
    15
100
AcDbCircle
 10
0.0
 20
0.0
 30
0.0
 40
0.139107148818881
100
AcDbArc
 50
78.3096043574
 51
88.3983122262
  0
ARC
  5
11D
330
1F
100
AcDbEntity
  8
0
  6
Continuous
 62
     7
370
    15
100
AcDbCircle
 10
0.0289968209
 20
0.1401386471
 30
0.0
 40
0.004
100
AcDbArc
 50
258.3096043575
 51
346.7079165837
  0
ARC
  5
11E
330
1F
100
AcDbEntity
  8
0
  6
Continuous
 62
     7
370
    15
100
AcDbCircle
 10
0.0
 20
0.0
 30
0.0
 40
0.2050000087856977
100
AcDbArc
 50
65.8125429741
 51
70.8953736096
  0
MTEXT
  5
120
330
1F
100
AcDbEntity
  8
0
  6
Continuous
 62
     7
100
AcDbMText
 10
-0.203946014
 20
-0.2440864231
 30
0.0
 40
0.1903
 41
0.0
 71
     1
 72
     1
  1
SOLIDWORKS Educational Product.
  7
SLDTEXTSTYLE0
 73
     1
 44
1.0
  0
MTEXT
  5
121
330
1F
100
AcDbEntity
  8
0
  6
Continuous
 62
     7
100
AcDbMText
 10
-0.203946014
 20
-0.5295364231
 30
0.0
 40
0.1903
 41
0.0
 71
     1
 72
     1
  1
For Instructional Use Only.
  7
SLDTEXTSTYLE0
 73
     1
 44
1.0
  0
ENDSEC
  0
SECTION
  2
OBJECTS
  0
DICTIONARY
  5
C
330
0
100
AcDbDictionary
281
     1
  3
ACAD_GROUP
350
D
  3
ACAD_LAYOUT
350
1A
  3
ACAD_MLINESTYLE
350
17
  3
ACAD_PLOTSETTINGS
350
19
  3
ACAD_PLOTSTYLENAME
350
E
  3
ACAD_SCALELIST
350
47
  0
DICTIONARY
  5
D
102
{ACAD_REACTORS
330
C
102
}
330
C
100
AcDbDictionary
281
     1
  0
DICTIONARY
  5
1A
102
{ACAD_REACTORS
330
C
102
}
330
C
100
AcDbDictionary
281
     1
  3
Layout1
350
1E
  3
Layout2
350
26
  3
Model
350
22
  0
DICTIONARY
  5
17
102
{ACAD_REACTORS
330
C
102
}
330
C
100
AcDbDictionary
281
     1
  3
Standard
350
18
  0
DICTIONARY
  5
19
102
{ACAD_REACTORS
330
C
102
}
330
C
100
AcDbDictionary
281
     1
  0
ACDBDICTIONARYWDFLT
  5
E
102
{ACAD_REACTORS
330
C
102
}
330
C
100
AcDbDictionary
281
     1
  3
Normal
350
F
100
AcDbDictionaryWithDefault
340
F
  0
DICTIONARY
  5
47
102
{ACAD_REACTORS
330
C
102
}
330
C
100
AcDbDictionary
281
     1
  3
A0
350
48
  3
A1
350
49
  3
A2
350
4A
  3
A3
350
4B
  3
A4
350
4C
  3
A5
350
4D
  3
A6
350
4E
  3
A7
350
4F
  3
A8
350
50
  3
A9
350
51
  3
B0
350
52
  3
B1
350
53
  3
B2
350
54
  3
B3
350
55
  3
B4
350
56
  3
B5
350
57
  3
B6
350
58
  3
B7
350
59
  3
B8
350
5A
  3
B9
350
5B
  3
C0
350
5C
  3
C1
350
5D
  3
C2
350
5E
  3
C3
350
5F
  3
C4
350
60
  3
C5
350
61
  3
C6
350
62
  3
C7
350
63
  3
C8
350
64
  3
C9
350
65
  3
D0
350
66
  3
D1
350
67
  3
D2
350
68
  0
LAYOUT
  5
1E
102
{ACAD_REACTORS
330
1A
102
}
330
1A
100
AcDbPlotSettings
  1

  2
none_device
  4

  6

 40
0.0
 41
0.0
 42
0.0
 43
0.0
 44
0.0
 45
0.0
 46
0.0
 47
0.0
 48
0.0
 49
0.0
140
0.0
141
0.0
142
1.0
143
1.0
 70
   688
 72
     0
 73
     0
 74
     5
  7

 75
    16
147
1.0
148
0.0
149
0.0
100
AcDbLayout
  1
Layout1
 70
     1
 71
     1
 10
0.0
 20
0.0
 11
12.0
 21
9.0
 12
0.0
 22
0.0
 32
0.0
 14
1.0000000000E+20
 24
1.0000000000E+20
 34
1.0000000000E+20
 15
-1.0000000000E+20
 25
-1.0000000000E+20
 35
-1.0000000000E+20
146
0.0
 13
0.0
 23
0.0
 33
0.0
 16
1.0
 26
0.0
 36
0.0
 17
0.0
 27
1.0
 37
0.0
 76
     0
330
1B
  0
LAYOUT
  5
26
102
{ACAD_REACTORS
330
1A
102
}
330
1A
100
AcDbPlotSettings
  1

  2
none_device
  4

  6

 40
0.0
 41
0.0
 42
0.0
 43
0.0
 44
0.0
 45
0.0
 46
0.0
 47
0.0
 48
0.0
 49
0.0
140
0.0
141
0.0
142
1.0
143
1.0
 70
   688
 72
     0
 73
     0
 74
     5
  7

 75
    16
147
1.0
148
0.0
149
0.0
100
AcDbLayout
  1
Layout2
 70
     1
 71
     2
 10
0.0
 20
0.0
 11
0.0
 21
0.0
 12
0.0
 22
0.0
 32
0.0
 14
0.0
 24
0.0
 34
0.0
 15
0.0
 25
0.0
 35
0.0
146
0.0
 13
0.0
 23
0.0
 33
0.0
 16
1.0
 26
0.0
 36
0.0
 17
0.0
 27
1.0
 37
0.0
 76
     0
330
23
  0
LAYOUT
  5
22
102
{ACAD_REACTORS
330
1A
102
}
330
1A
100
AcDbPlotSettings
  1

  2
none_device
  4
ANSI_A_(11.00_x_8.50_Inches)
  6

 40
6.35
 41
19.05
 42
6.35000508
 43
19.05000254
 44
279.4
 45
215.9
 46
133.34999746
 47
88.89999873
 48
0.0
 49
0.0
140
0.0
141
0.0
142
20.6304595905
143
1.0
 70
  1696
 72
     0
 73
     0
 74
     0
  7

 75
     0
147
0.5913241897
148
-39.4088153714
149
0.0
100
AcDbLayout
  1
Model
 70
     1
 71
     0
 10
0.0
 20
0.0
 11
12.0
 21
9.0
 12
0.0
 22
0.0
 32
0.0
 14
-0.203946014
 24
-0.203946014
 34
0.0
 15
0.203946014
 25
0.203946014
 35
0.0
146
0.0
 13
0.0
 23
0.0
 33
0.0
 16
1.0
 26
0.0
 36
0.0
 17
0.0
 27
1.0
 37
0.0
 76
     0
330
1F
331
29
  0
MLINESTYLE
  5
18
102
{ACAD_REACTORS
330
17
102
}
330
17
100
AcDbMlineStyle
  2
Standard
 70
     0
  3

 62
   256
 51
90.0
 52
90.0
 71
     2
 49
0.5
 62
   256
  6
BYLAYER
 49
-0.5
 62
   256
  6
BYLAYER
  0
ACDBPLACEHOLDER
  5
F
102
{ACAD_REACTORS
330
E
102
}
330
E
  0
SCALE
  5
48
102
{ACAD_REACTORS
330
47
102
}
330
47
100
AcDbScale
 70
     0
300
1:1
140
1.0
141
1.0
290
     1
  0
SCALE
  5
49
102
{ACAD_REACTORS
330
47
102
}
330
47
100
AcDbScale
 70
     0
300
1:2
140
1.0
141
2.0
290
     0
  0
SCALE
  5
4A
102
{ACAD_REACTORS
330
47
102
}
330
47
100
AcDbScale
 70
     0
300
1:4
140
1.0
141
4.0
290
     0
  0
SCALE
  5
4B
102
{ACAD_REACTORS
330
47
102
}
330
47
100
AcDbScale
 70
     0
300
1:5
140
1.0
141
5.0
290
     0
  0
SCALE
  5
4C
102
{ACAD_REACTORS
330
47
102
}
330
47
100
AcDbScale
 70
     0
300
1:8
140
1.0
141
8.0
290
     0
  0
SCALE
  5
4D
102
{ACAD_REACTORS
330
47
102
}
330
47
100
AcDbScale
 70
     0
300
1:10
140
1.0
141
10.0
290
     0
  0
SCALE
  5
4E
102
{ACAD_REACTORS
330
47
102
}
330
47
100
AcDbScale
 70
     0
300
1:16
140
1.0
141
16.0
290
     0
  0
SCALE
  5
4F
102
{ACAD_REACTORS
330
47
102
}
330
47
100
AcDbScale
 70
     0
300
1:20
140
1.0
141
20.0
290
     0
  0
SCALE
  5
50
102
{ACAD_REACTORS
330
47
102
}
330
47
100
AcDbScale
 70
     0
300
1:30
140
1.0
141
30.0
290
     0
  0
SCALE
  5
51
102
{ACAD_REACTORS
330
47
102
}
330
47
100
AcDbScale
 70
     0
300
1:40
140
1.0
141
40.0
290
     0
  0
SCALE
  5
52
102
{ACAD_REACTORS
330
47
102
}
330
47
100
AcDbScale
 70
     0
300
1:50
140
1.0
141
50.0
290
     0
  0
SCALE
  5
53
102
{ACAD_REACTORS
330
47
102
}
330
47
100
AcDbScale
 70
     0
300
1:100
140
1.0
141
100.0
290
     0
  0
SCALE
  5
54
102
{ACAD_REACTORS
330
47
102
}
330
47
100
AcDbScale
 70
     0
300
2:1
140
2.0
141
1.0
290
     0
  0
SCALE
  5
55
102
{ACAD_REACTORS
330
47
102
}
330
47
100
AcDbScale
 70
     0
300
4:1
140
4.0
141
1.0
290
     0
  0
SCALE
  5
56
102
{ACAD_REACTORS
330
47
102
}
330
47
100
AcDbScale
 70
     0
300
8:1
140
8.0
141
1.0
290
     0
  0
SCALE
  5
57
102
{ACAD_REACTORS
330
47
102
}
330
47
100
AcDbScale
 70
     0
300
10:1
140
10.0
141
1.0
290
     0
  0
SCALE
  5
58
102
{ACAD_REACTORS
330
47
102
}
330
47
100
AcDbScale
 70
     0
300
100:1
140
100.0
141
1.0
290
     0
  0
SCALE
  5
59
102
{ACAD_REACTORS
330
47
102
}
330
47
100
AcDbScale
 70
     0
300
1/128" = 1'-0"
140
0.0078125
141
12.0
290
     0
  0
SCALE
  5
5A
102
{ACAD_REACTORS
330
47
102
}
330
47
100
AcDbScale
 70
     0
300
1/64" = 1'-0"
140
0.015625
141
12.0
290
     0
  0
SCALE
  5
5B
102
{ACAD_REACTORS
330
47
102
}
330
47
100
AcDbScale
 70
     0
300
1/32" = 1'-0"
140
0.03125
141
12.0
290
     0
  0
SCALE
  5
5C
102
{ACAD_REACTORS
330
47
102
}
330
47
100
AcDbScale
 70
     0
300
1/16" = 1'-0"
140
0.0625
141
12.0
290
     0
  0
SCALE
  5
5D
102
{ACAD_REACTORS
330
47
102
}
330
47
100
AcDbScale
 70
     0
300
3/32" = 1'-0"
140
0.09375
141
12.0
290
     0
  0
SCALE
  5
5E
102
{ACAD_REACTORS
330
47
102
}
330
47
100
AcDbScale
 70
     0
300
1/8" = 1'-0"
140
0.125
141
12.0
290
     0
  0
SCALE
  5
5F
102
{ACAD_REACTORS
330
47
102
}
330
47
100
AcDbScale
 70
     0
300
3/16" = 1'-0"
140
0.1875
141
12.0
290
     0
  0
SCALE
  5
60
102
{ACAD_REACTORS
330
47
102
}
330
47
100
AcDbScale
 70
     0
300
1/4" = 1'-0"
140
0.25
141
12.0
290
     0
  0
SCALE
  5
61
102
{ACAD_REACTORS
330
47
102
}
330
47
100
AcDbScale
 70
     0
300
3/8" = 1'-0"
140
0.375
141
12.0
290
     0
  0
SCALE
  5
62
102
{ACAD_REACTORS
330
47
102
}
330
47
100
AcDbScale
 70
     0
300
1/2" = 1'-0"
140
0.5
141
12.0
290
     0
  0
SCALE
  5
63
102
{ACAD_REACTORS
330
47
102
}
330
47
100
AcDbScale
 70
     0
300
3/4" = 1'-0"
140
0.75
141
12.0
290
     0
  0
SCALE
  5
64
102
{ACAD_REACTORS
330
47
102
}
330
47
100
AcDbScale
 70
     0
300
1" = 1'-0"
140
1.0
141
12.0
290
     0
  0
SCALE
  5
65
102
{ACAD_REACTORS
330
47
102
}
330
47
100
AcDbScale
 70
     0
300
1-1/2" = 1'-0"
140
1.5
141
12.0
290
     0
  0
SCALE
  5
66
102
{ACAD_REACTORS
330
47
102
}
330
47
100
AcDbScale
 70
     0
300
3" = 1'-0"
140
3.0
141
12.0
290
     0
  0
SCALE
  5
67
102
{ACAD_REACTORS
330
47
102
}
330
47
100
AcDbScale
 70
     0
300
6" = 1'-0"
140
6.0
141
12.0
290
     0
  0
SCALE
  5
68
102
{ACAD_REACTORS
330
47
102
}
330
47
100
AcDbScale
 70
     0
300
1'-0" = 1'-0"
140
12.0
141
12.0
290
     0
  0
ENDSEC
  0
EOF
