  0
SECTION
  2
HEADER
  9
$ACADVER
  1
AC1015
  9
$ACADMAINTVER
 70
     6
  9
$DWGCODEPAGE
  3
ANSI_1252
  9
$INSBASE
 10
0.0
 20
0.0
 30
0.0
  9
$EXTMIN
 10
-0.3700959098
 20
-0.378383445
 30
0.0
  9
$EXTMAX
 10
0.3676083456
 20
0.3432760871
 30
0.0
  9
$LIMMIN
 10
0.0
 20
0.0
  9
$LIMMAX
 10
12.0
 20
9.0
  9
$ORTHOMODE
 70
     0
  9
$REGENMODE
 70
     1
  9
$FILLMODE
 70
     1
  9
$QTEXTMODE
 70
     0
  9
$MIRRTEXT
 70
     1
  9
$LTSCALE
 40
1.0
  9
$ATTMODE
 70
     1
  9
$TEXTSIZE
 40
0.1377952756
  9
$TRACEWID
 40
0.05
  9
$TEXTSTYLE
  7
Standard
  9
$CLAYER
  8
0
  9
$CELTYPE
  6
ByLayer
  9
$CECOLOR
 62
   256
  9
$CELTSCALE
 40
1.0
  9
$DISPSILH
 70
     0
  9
$DIMSCALE
 40
1.0
  9
$DIMASZ
 40
0.13
  9
$DIMEXO
 40
0.0393700787
  9
$DIMDLI
 40
0.38
  9
$DIMRND
 40
0.0
  9
$DIMDLE
 40
0.0
  9
$DIMEXE
 40
0.0393700787
  9
$DIMTP
 40
0.0
  9
$DIMTM
 40
0.0
  9
$DIMTXT
 40
0.1377952756
  9
$DIMCEN
 40
0.09
  9
$DIMTSZ
 40
0.0
  9
$DIMTOL
 70
     0
  9
$DIMLIM
 70
     0
  9
$DIMTIH
 70
     1
  9
$DIMTOH
 70
     1
  9
$DIMSE1
 70
     0
  9
$DIMSE2
 70
     0
  9
$DIMTAD
 70
     1
  9
$DIMZIN
 70
     0
  9
$DIMBLK
  1

  9
$DIMASO
 70
     1
  9
$DIMSHO
 70
     1
  9
$DIMPOST
  1

  9
$DIMAPOST
  1

  9
$DIMALT
 70
     0
  9
$DIMALTD
 70
     2
  9
$DIMALTF
 40
25.4
  9
$DIMLFAC
 40
1.0
  9
$DIMTOFL
 70
     0
  9
$DIMTVP
 40
0.0
  9
$DIMTIX
 70
     0
  9
$DIMSOXD
 70
     0
  9
$DIMSAH
 70
     0
  9
$DIMBLK1
  1

  9
$DIMBLK2
  1

  9
$DIMSTYLE
  2
Standard
  9
$DIMCLRD
 70
     0
  9
$DIMCLRE
 70
     0
  9
$DIMCLRT
 70
     0
  9
$DIMTFAC
 40
1.0
  9
$DIMGAP
 40
0.06
  9
$DIMJUST
 70
     0
  9
$DIMSD1
 70
     0
  9
$DIMSD2
 70
     0
  9
$DIMTOLJ
 70
     1
  9
$DIMTZIN
 70
     0
  9
$DIMALTZ
 70
     0
  9
$DIMALTTZ
 70
     0
  9
$DIMUPT
 70
     0
  9
$DIMDEC
 70
     2
  9
$DIMTDEC
 70
     2
  9
$DIMALTU
 70
     2
  9
$DIMALTTD
 70
     2
  9
$DIMTXSTY
  7
Standard
  9
$DIMAUNIT
 70
     0
  9
$DIMADEC
 70
     2
  9
$DIMALTRND
 40
0.0
  9
$DIMAZIN
 70
     0
  9
$DIMDSEP
 70
    46
  9
$DIMATFIT
 70
     3
  9
$DIMFRAC
 70
     0
  9
$DIMLDRBLK
  1

  9
$DIMLUNIT
 70
     2
  9
$DIMLWD
 70
    -2
  9
$DIMLWE
 70
    -2
  9
$DIMTMOVE
 70
     0
  9
$LUNITS
 70
     2
  9
$LUPREC
 70
     2
  9
$SKETCHINC
 40
0.1
  9
$FILLETRAD
 40
0.5
  9
$AUNITS
 70
     0
  9
$AUPREC
 70
     2
  9
$MENU
  1
.
  9
$ELEVATION
 40
0.0
  9
$PELEVATION
 40
0.0
  9
$THICKNESS
 40
0.0
  9
$LIMCHECK
 70
     0
  9
$CHAMFERA
 40
0.0
  9
$CHAMFERB
 40
0.0
  9
$CHAMFERC
 40
0.0
  9
$CHAMFERD
 40
0.0
  9
$SKPOLY
 70
     0
  9
$TDCREATE
 40
2457794.637814884
  9
$TDUCREATE
 40
2457794.846148218
  9
$TDUPDATE
 40
2457794.637841042
  9
$TDUUPDATE
 40
2457794.846174375
  9
$TDINDWG
 40
0.0000000116
  9
$TDUSRTIMER
 40
0.0000000116
  9
$USRTIMER
 70
     1
  9
$ANGBASE
 50
0.0
  9
$ANGDIR
 70
     0
  9
$PDMODE
 70
     0
  9
$PDSIZE
 40
-1.0
  9
$PLINEWID
 40
0.0
  9
$SPLFRAME
 70
     0
  9
$SPLINETYPE
 70
     6
  9
$SPLINESEGS
 70
     8
  9
$HANDSEED
  5
CA
  9
$SURFTAB1
 70
     6
  9
$SURFTAB2
 70
     6
  9
$SURFTYPE
 70
     6
  9
$SURFU
 70
     6
  9
$SURFV
 70
     6
  9
$UCSBASE
  2

  9
$UCSNAME
  2

  9
$UCSORG
 10
0.0
 20
0.0
 30
0.0
  9
$UCSXDIR
 10
1.0
 20
0.0
 30
0.0
  9
$UCSYDIR
 10
0.0
 20
1.0
 30
0.0
  9
$UCSORTHOREF
  2

  9
$UCSORTHOVIEW
 70
     0
  9
$UCSORGTOP
 10
0.0
 20
0.0
 30
0.0
  9
$UCSORGBOTTOM
 10
0.0
 20
0.0
 30
0.0
  9
$UCSORGLEFT
 10
0.0
 20
0.0
 30
0.0
  9
$UCSORGRIGHT
 10
0.0
 20
0.0
 30
0.0
  9
$UCSORGFRONT
 10
0.0
 20
0.0
 30
0.0
  9
$UCSORGBACK
 10
0.0
 20
0.0
 30
0.0
  9
$PUCSBASE
  2

  9
$PUCSNAME
  2

  9
$PUCSORG
 10
0.0
 20
0.0
 30
0.0
  9
$PUCSXDIR
 10
1.0
 20
0.0
 30
0.0
  9
$PUCSYDIR
 10
0.0
 20
1.0
 30
0.0
  9
$PUCSORTHOREF
  2

  9
$PUCSORTHOVIEW
 70
     0
  9
$PUCSORGTOP
 10
0.0
 20
0.0
 30
0.0
  9
$PUCSORGBOTTOM
 10
0.0
 20
0.0
 30
0.0
  9
$PUCSORGLEFT
 10
0.0
 20
0.0
 30
0.0
  9
$PUCSORGRIGHT
 10
0.0
 20
0.0
 30
0.0
  9
$PUCSORGFRONT
 10
0.0
 20
0.0
 30
0.0
  9
$PUCSORGBACK
 10
0.0
 20
0.0
 30
0.0
  9
$USERI1
 70
     0
  9
$USERI2
 70
     0
  9
$USERI3
 70
     0
  9
$USERI4
 70
     0
  9
$USERI5
 70
     0
  9
$USERR1
 40
0.0
  9
$USERR2
 40
0.0
  9
$USERR3
 40
0.0
  9
$USERR4
 40
0.0
  9
$USERR5
 40
0.0
  9
$WORLDVIEW
 70
     1
  9
$SHADEDGE
 70
     3
  9
$SHADEDIF
 70
    70
  9
$TILEMODE
 70
     1
  9
$MAXACTVP
 70
    64
  9
$PINSBASE
 10
0.0
 20
0.0
 30
0.0
  9
$PLIMCHECK
 70
     0
  9
$PEXTMIN
 10
1.0000000000E+20
 20
1.0000000000E+20
 30
1.0000000000E+20
  9
$PEXTMAX
 10
-1.0000000000E+20
 20
-1.0000000000E+20
 30
-1.0000000000E+20
  9
$PLIMMIN
 10
0.0
 20
0.0
  9
$PLIMMAX
 10
12.0
 20
9.0
  9
$UNITMODE
 70
     0
  9
$VISRETAIN
 70
     1
  9
$PLINEGEN
 70
     0
  9
$PSLTSCALE
 70
     1
  9
$TREEDEPTH
 70
  3020
  9
$CMLSTYLE
  2
Standard
  9
$CMLJUST
 70
     0
  9
$CMLSCALE
 40
1.0
  9
$PROXYGRAPHICS
 70
     1
  9
$MEASUREMENT
 70
     0
  9
$CELWEIGHT
370
    -1
  9
$ENDCAPS
280
     0
  9
$JOINSTYLE
280
     0
  9
$LWDISPLAY
290
     1
  9
$INSUNITS
 70
     1
  9
$HYPERLINKBASE
  1

  9
$STYLESHEET
  1

  9
$XEDIT
290
     1
  9
$CEPSNTYPE
380
     0
  9
$PSTYLEMODE
290
     1
  9
$FINGERPRINTGUID
  2
{B421F3F3-7227-4186-A2B2-BCCF405F6AD2}
  9
$VERSIONGUID
  2
{FAEB1C32-E019-11D5-929B-00C0DF256EC4}
  9
$EXTNAMES
290
     1
  9
$PSVPSCALE
 40
0.0
  9
$OLESTARTUP
290
     0
  0
ENDSEC
  0
SECTION
  2
CLASSES
  0
CLASS
  1
ACDBDICTIONARYWDFLT
  2
AcDbDictionaryWithDefault
  3
ObjectDBX Classes
 90
        0
280
     0
281
     0
  0
CLASS
  1
VISUALSTYLE
  2
AcDbVisualStyle
  3
ObjectDBX Classes
 90
     4095
280
     0
281
     0
  0
CLASS
  1
MATERIAL
  2
AcDbMaterial
  3
ObjectDBX Classes
 90
     1153
280
     0
281
     0
  0
CLASS
  1
SCALE
  2
AcDbScale
  3
ObjectDBX Classes
 90
     1153
280
     0
281
     0
  0
CLASS
  1
TABLESTYLE
  2
AcDbTableStyle
  3
ObjectDBX Classes
 90
     4095
280
     0
281
     0
  0
CLASS
  1
MLEADERSTYLE
  2
AcDbMLeaderStyle
  3
ACDB_MLEADERSTYLE_CLASS
 90
     4095
280
     0
281
     0
  0
CLASS
  1
SUN
  2
AcDbSun
  3
SCENEOE
 90
     1153
280
     0
281
     0
  0
CLASS
  1
ACDBPLACEHOLDER
  2
AcDbPlaceHolder
  3
ObjectDBX Classes
 90
        0
280
     0
281
     0
  0
CLASS
  1
LAYOUT
  2
AcDbLayout
  3
ObjectDBX Classes
 90
        0
280
     0
281
     0
  0
ENDSEC
  0
SECTION
  2
TABLES
  0
TABLE
  2
VPORT
  5
8
330
0
100
AcDbSymbolTable
 70
     1
  0
VPORT
  5
29
330
8
100
AcDbSymbolTableRecord
100
AcDbViewportTableRecord
  2
*Active
 70
     0
 10
0.0
 20
0.0
 11
1.0
 21
1.0
 12
-0.0012437821
 22
-0.017553679
 13
0.0
 23
0.0
 14
0.5
 24
0.5
 15
0.5
 25
0.5
 16
0.0
 26
0.0
 36
1.0
 17
0.0
 27
0.0
 37
0.0
 40
0.7360927228
 41
1.0222330928
 42
50.0
 43
0.0
 44
0.0
 50
0.0
 51
0.0
 71
     0
 72
   100
 73
     1
 74
     3
 75
     0
 76
     0
 77
     0
 78
     0
281
     0
 65
     1
110
0.0
120
0.0
130
0.0
111
1.0
121
0.0
131
0.0
112
0.0
122
1.0
132
0.0
 79
     0
146
0.0
  0
ENDTAB
  0
TABLE
  2
LTYPE
  5
5
330
0
100
AcDbSymbolTable
 70
     6
  0
LTYPE
  5
14
330
5
100
AcDbSymbolTableRecord
100
AcDbLinetypeTableRecord
  2
ByBlock
 70
     0
  3

 72
    65
 73
     0
 40
0.0
  0
LTYPE
  5
15
330
5
100
AcDbSymbolTableRecord
100
AcDbLinetypeTableRecord
  2
ByLayer
 70
     0
  3

 72
    65
 73
     0
 40
0.0
  0
LTYPE
  5
16
330
5
100
AcDbSymbolTableRecord
100
AcDbLinetypeTableRecord
  2
Continuous
 70
     0
  3
Solid line
 72
    65
 73
     0
 40
0.0
  0
LTYPE
  5
6E
330
5
100
AcDbSymbolTableRecord
100
AcDbLinetypeTableRecord
  2
HIDDEN
 70
     0
  3
Hidden __ __ __ __ __ __ __ __ __ __ __ __ __ __
 72
    65
 73
     2
 40
0.075
 49
0.05
 74
     0
 49
-0.025
 74
     0
  0
LTYPE
  5
6F
330
5
100
AcDbSymbolTableRecord
100
AcDbLinetypeTableRecord
  2
PHANTOM
 70
     0
  3
Phantom ______  __  __  ______  __  __  ______
 72
    65
 73
     6
 40
0.5
 49
0.25
 74
     0
 49
-0.05
 74
     0
 49
0.05
 74
     0
 49
-0.05
 74
     0
 49
0.05
 74
     0
 49
-0.05
 74
     0
  0
LTYPE
  5
70
330
5
100
AcDbSymbolTableRecord
100
AcDbLinetypeTableRecord
  2
CENTER
 70
     0
  3
Center ____ _ ____ _ ____ _ ____ _ ____ _ ____
 72
    65
 73
     4
 40
0.4
 49
0.25
 74
     0
 49
-0.05
 74
     0
 49
0.05
 74
     0
 49
-0.05
 74
     0
  0
LTYPE
  5
71
330
5
100
AcDbSymbolTableRecord
100
AcDbLinetypeTableRecord
  2
CENTERX2
 70
     0
  3
Center (2x) ________  __  ________  __  _____
 72
    65
 73
     4
 40
0.8
 49
0.5
 74
     0
 49
-0.1
 74
     0
 49
0.1
 74
     0
 49
-0.1
 74
     0
  0
LTYPE
  5
72
330
5
100
AcDbSymbolTableRecord
100
AcDbLinetypeTableRecord
  2
DOT2
 70
     0
  3
Dot (.5x) ........................................
 72
    65
 73
     2
 40
0.025
 49
0.0
 74
     0
 49
-0.025
 74
     0
  0
ENDTAB
  0
TABLE
  2
LAYER
  5
2
330
0
100
AcDbSymbolTable
 70
     1
  0
LAYER
  5
10
330
2
100
AcDbSymbolTableRecord
100
AcDbLayerTableRecord
  2
0
 70
     0
 62
     7
  6
Continuous
370
    -3
390
F
  0
ENDTAB
  0
TABLE
  2
STYLE
  5
3
330
0
100
AcDbSymbolTable
 70
     2
  0
STYLE
  5
11
330
3
100
AcDbSymbolTableRecord
100
AcDbTextStyleTableRecord
  2
Standard
 70
     0
 40
0.0
 41
1.0
 50
0.0
 71
     0
 42
0.1377952756
  3
txt
  4

  0
STYLE
  5
C7
330
3
100
AcDbSymbolTableRecord
100
AcDbTextStyleTableRecord
  2
SLDTEXTSTYLE0
 70
     0
 40
0.0
 41
0.7
 50
0.0
 71
     0
 42
0.1377952756
  3
TXT
  4

  0
ENDTAB
  0
TABLE
  2
VIEW
  5
6
330
0
100
AcDbSymbolTable
 70
     0
  0
ENDTAB
  0
TABLE
  2
UCS
  5
7
330
0
100
AcDbSymbolTable
 70
     0
  0
ENDTAB
  0
TABLE
  2
APPID
  5
9
330
0
100
AcDbSymbolTable
 70
     1
  0
APPID
  5
12
330
9
100
AcDbSymbolTableRecord
100
AcDbRegAppTableRecord
  2
ACAD
 70
     0
  0
ENDTAB
  0
TABLE
  2
DIMSTYLE
  5
A
330
0
100
AcDbSymbolTable
 70
     1
100
AcDbDimStyleTable
  0
DIMSTYLE
105
27
330
A
100
AcDbSymbolTableRecord
100
AcDbDimStyleTableRecord
  2
Standard
 70
     0
178
     0
340
11
  0
ENDTAB
  0
TABLE
  2
BLOCK_RECORD
  5
1
330
0
100
AcDbSymbolTable
 70
     1
  0
BLOCK_RECORD
  5
1F
330
1
100
AcDbSymbolTableRecord
100
AcDbBlockTableRecord
  2
*Model_Space
340
22
  0
BLOCK_RECORD
  5
1B
330
1
100
AcDbSymbolTableRecord
100
AcDbBlockTableRecord
  2
*Paper_Space
340
1E
  0
BLOCK_RECORD
  5
23
330
1
100
AcDbSymbolTableRecord
100
AcDbBlockTableRecord
  2
*Paper_Space0
340
26
  0
ENDTAB
  0
ENDSEC
  0
SECTION
  2
BLOCKS
  0
BLOCK
  5
20
330
1F
100
AcDbEntity
  8
0
100
AcDbBlockBegin
  2
*Model_Space
 70
     0
 10
0.0
 20
0.0
 30
0.0
  3
*Model_Space
  1

  0
ENDBLK
  5
21
330
1F
100
AcDbEntity
  8
0
100
AcDbBlockEnd
  0
BLOCK
  5
1C
330
1B
100
AcDbEntity
 67
     1
  8
0
100
AcDbBlockBegin
  2
*Paper_Space
 70
     0
 10
0.0
 20
0.0
 30
0.0
  3
*Paper_Space
  1

  0
ENDBLK
  5
1D
330
1B
100
AcDbEntity
 67
     1
  8
0
100
AcDbBlockEnd
  0
BLOCK
  5
24
330
23
100
AcDbEntity
  8
0
100
AcDbBlockBegin
  2
*Paper_Space0
 70
     0
 10
0.0
 20
0.0
 30
0.0
  3
*Paper_Space0
  1

  0
ENDBLK
  5
25
330
23
100
AcDbEntity
  8
0
100
AcDbBlockEnd
  0
ENDSEC
  0
SECTION
  2
ENTITIES
  0
SPLINE
  5
78
330
1F
100
AcDbEntity
  8
0
  6
Continuous
 62
     7
370
    15
100
AcDbSpline
210
0.0
220
0.0
230
1.0
 70
     8
 71
     3
 72
    18
 73
    14
 74
     0
 42
0.000000001
 43
0.00000001
 40
0.0
 40
0.0
 40
0.0
 40
0.0
 40
0.03125
 40
0.03125
 40
0.0625000000000001
 40
0.0625000000000001
 40
0.1250000000000001
 40
0.1250000000000001
 40
0.25
 40
0.25
 40
0.5
 40
0.5
 40
1.0
 40
1.0
 40
1.0
 40
1.0
 10
0.2365827947650032
 20
-0.10540464995896
 30
0.0
 10
0.2379659906814894
 20
-0.1060206727062153
 30
0.0
 10
0.2392472166959539
 20
-0.1068429974969091
 30
0.0
 10
0.2417655792713769
 20
-0.1085239829007753
 30
0.0
 10
0.2429861651875708
 20
-0.109421641005072
 30
0.0
 10
0.2465569318864991
 20
-0.1122282742369978
 30
0.0
 10
0.248815803229164
 20
-0.114251658779725
 30
0.0
 10
0.2552996717656416
 20
-0.120613336430969
 30
0.0
 10
0.2592318281470103
 20
-0.1252433899927678
 30
0.0
 10
0.2700776063037954
 20
-0.1398178999846423
 30
0.0
 10
0.2760411739802296
 20
-0.1504453799546442
 30
0.0
 10
0.2908680352015921
 20
-0.1836169474519629
 30
0.0
 10
0.2966719704762912
 20
-0.2074422791499511
 30
0.0
 10
0.2993318766362518
 20
-0.2315187250533755
 30
0.0
  0
SPLINE
  5
79
330
1F
100
AcDbEntity
  8
0
  6
Continuous
 62
     7
370
    15
100
AcDbSpline
210
0.0
220
0.0
230
1.0
 70
     8
 71
     3
 72
    18
 73
    14
 74
     0
 42
0.000000001
 43
0.00000001
 40
0.0
 40
0.0
 40
0.0
 40
0.0
 40
0.5000000000000002
 40
0.5000000000000002
 40
0.7500000000000003
 40
0.7500000000000003
 40
0.8750000000000001
 40
0.8750000000000001
 40
0.9375000000000001
 40
0.9375000000000001
 40
0.9687500000000001
 40
0.9687500000000001
 40
1.0
 40
1.0
 40
1.0
 40
1.0
 10
0.2993318766362519
 20
-0.2315187250533756
 30
0.0
 10
0.2753592535545802
 20
-0.2350025051326414
 30
0.0
 10
0.2508385204569871
 20
-0.2353799394850525
 30
0.0
 10
0.215001342370321
 20
-0.2293756929844898
 30
0.0
 10
0.2032145621374092
 20
-0.2262776303413923
 30
0.0
 10
0.1863790774208949
 20
-0.2194471789282285
 30
0.0
 10
0.1809083141629624
 20
-0.2168062288772736
 30
0.0
 10
0.1731194959072398
 20
-0.2121311688937518
 30
0.0
 10
0.1705927395566456
 20
-0.210453904216456
 30
0.0
 10
0.1669777873605904
 20
-0.2077039403017052
 30
0.0
 10
0.1658018742984944
 20
-0.2067483714350979
 30
0.0
 10
0.1635411989013613
 20
-0.2047338223272062
 30
0.0
 10
0.1624228018103761
 20
-0.2037007139344507
 30
0.0
 10
0.1614786739389237
 20
-0.2025168150299675
 30
0.0
  0
SPLINE
  5
7F
330
1F
100
AcDbEntity
  8
0
  6
Continuous
 62
     7
370
    15
100
AcDbSpline
210
0.0
220
0.0
230
1.0
 70
     8
 71
     3
 72
    18
 73
    14
 74
     0
 42
0.000000001
 43
0.00000001
 40
0.0
 40
0.0
 40
0.0
 40
0.0
 40
0.0312499999999999
 40
0.0312499999999999
 40
0.0624999999999998
 40
0.0624999999999998
 40
0.1249999999999995
 40
0.1249999999999995
 40
0.2499999999999997
 40
0.2499999999999997
 40
0.5000000000000002
 40
0.5000000000000002
 40
1.0
 40
1.0
 40
1.0
 40
1.0
 10
0.0651389304977944
 20
-0.2506933976484615
 30
0.0
 10
0.0655197130679753
 20
-0.2521589076630182
 30
0.0
 10
0.065675625011692
 20
-0.253673321618097
 30
0.0
 10
0.065931551084539
 20
-0.2566903340202161
 30
0.0
 10
0.0659907565891468
 20
-0.2582043071901385
 30
0.0
 10
0.0660227789902848
 20
-0.2627459522095727
 30
0.0
 10
0.065849216499504
 20
-0.2657735685677419
 30
0.0
 10
0.0649180825395348
 20
-0.2748093022560079
 30
0.0
 10
0.0637498203025044
 20
-0.2807703770867909
 30
0.0
 10
0.0591172416232896
 20
-0.2983370062486517
 30
0.0
 10
0.0545265668323944
 20
-0.309625636586671
 30
0.0
 10
0.0378363878052722
 20
-0.341899877521965
 30
0.0
 10
0.0228276878579635
 20
-0.361292428181529
 30
0.0
 10
0.005662388829364
 20
-0.3783834450435857
 30
0.0
  0
SPLINE
  5
80
330
1F
100
AcDbEntity
  8
0
  6
Continuous
 62
     7
370
    15
100
AcDbSpline
210
0.0
220
0.0
230
1.0
 70
     8
 71
     3
 72
    18
 73
    14
 74
     0
 42
0.000000001
 43
0.00000001
 40
0.0
 40
0.0
 40
0.0
 40
0.0
 40
0.499999999999999
 40
0.499999999999999
 40
0.7499999999999991
 40
0.7499999999999991
 40
0.8749999999999996
 40
0.8749999999999996
 40
0.9374999999999998
 40
0.9374999999999998
 40
0.9687499999999999
 40
0.9687499999999999
 40
1.0
 40
1.0
 40
1.0
 40
1.0
 10
0.0056623888293641
 20
-0.3783834450435857
 30
0.0
 10
-0.012008026129827
 20
-0.3618129949523362
 30
0.0
 10
-0.0275915432095564
 20
-0.342877240313042
 30
0.0
 10
-0.0452413493313511
 20
-0.3111150197811234
 30
0.0
 10
-0.0501681236942898
 20
-0.299968133454611
 30
0.0
 10
-0.0553246147701057
 20
-0.2825469046824309
 30
0.0
 10
-0.0566708019763483
 20
-0.2766230843102611
 30
0.0
 10
-0.0578719416497783
 20
-0.2676186887639114
 30
0.0
 10
-0.0581360101370142
 20
-0.2645974336791792
 30
0.0
 10
-0.0582398876012582
 20
-0.2600565757883593
 30
0.0
 10
-0.0582259635797678
 20
-0.258541422492464
 30
0.0
 10
-0.0580604337196655
 20
-0.2555179044712301
 30
0.0
 10
-0.057950026234065
 20
-0.2539993738684992
 30
0.0
 10
-0.0576130708979819
 20
-0.2525230760817456
 30
0.0
  0
SPLINE
  5
86
330
1F
100
AcDbEntity
  8
0
  6
Continuous
 62
     7
370
    15
100
AcDbSpline
210
0.0
220
0.0
230
1.0
 70
     8
 71
     3
 72
    18
 73
    14
 74
     0
 42
0.000000001
 43
0.00000001
 40
0.0
 40
0.0
 40
0.0
 40
0.0
 40
0.5000000000000001
 40
0.5000000000000001
 40
0.7500000000000006
 40
0.7500000000000006
 40
0.8750000000000004
 40
0.8750000000000004
 40
0.9375000000000003
 40
0.9375000000000003
 40
0.9687500000000002
 40
0.9687500000000002
 40
1.0
 40
1.0
 40
1.0
 40
1.0
 10
-0.2922610036875086
 20
-0.2403520492026307
 30
0.0
 10
-0.2903230276491716
 20
-0.2162052558351577
 30
0.0
 10
-0.2852346225041833
 20
-0.1922153216665472
 30
0.0
 10
-0.2714063926609611
 20
-0.1586127269950335
 30
0.0
 10
-0.265763199570752
 20
-0.147810849744012
 30
0.0
 10
-0.2553577540525307
 20
-0.1329173842065715
 30
0.0
 10
-0.2515656587835681
 20
-0.1281714510773448
 30
0.0
 10
-0.2452746372018282
 20
-0.1216182134707644
 30
0.0
 10
-0.2430771688688018
 20
-0.1195280346797713
 30
0.0
 10
-0.2395917497519446
 20
-0.1166156414212905
 30
0.0
 10
-0.2383984737190481
 20
-0.1156818450314109
 30
0.0
 10
-0.2359313859625614
 20
-0.1139261288353519
 30
0.0
 10
-0.2346753129889343
 20
-0.1130656605388813
 30
0.0
 10
-0.2333110086860228
 20
-0.1124086462142693
 30
0.0
  0
SPLINE
  5
8C
330
1F
100
AcDbEntity
  8
0
  6
Continuous
 62
     7
370
    15
100
AcDbSpline
210
0.0
220
0.0
230
1.0
 70
     8
 71
     3
 72
    18
 73
    14
 74
     0
 42
0.000000001
 43
0.00000001
 40
0.0
 40
0.0
 40
0.0
 40
0.0
 40
0.0312499999999997
 40
0.0312499999999997
 40
0.0624999999999994
 40
0.0624999999999994
 40
0.1249999999999996
 40
0.1249999999999996
 40
0.2499999999999998
 40
0.2499999999999998
 40
0.5000000000000002
 40
0.5000000000000002
 40
1.0
 40
1.0
 40
1.0
 40
1.0
 10
-0.258842094106694
 20
-0.0077640431219856
 30
0.0
 10
-0.2603555928186187
 20
-0.0078091720209659
 30
0.0
 10
-0.261866730925353
 20
-0.0076241861190571
 30
0.0
 10
-0.2648650494363313
 20
-0.0072023471734534
 30
0.0
 10
-0.2663542386021638
 20
-0.0069231775486944
 30
0.0
 10
-0.2707891407534405
 20
-0.0059437859899563
 30
0.0
 10
-0.2737022271608496
 20
-0.0051008670535051
 30
0.0
 10
-0.2823042193421707
 20
-0.0021824386666573
 30
0.0
 10
-0.2878558747772157
 20
0.000282996735701
 30
0.0
 10
-0.303951226135736
 20
0.0087083697230074
 30
0.0
 10
-0.3139353057006144
 20
0.0156959032783044
 30
0.0
 10
-0.3416864498078988
 20
0.0391493189068101
 30
0.0
 10
-0.3572530388045633
 20
0.0580969678955646
 30
0.0
 10
-0.3700959098194693
 20
0.0786350060739018
 30
0.0
  0
SPLINE
  5
8D
330
1F
100
AcDbEntity
  8
0
  6
Continuous
 62
     7
370
    15
100
AcDbSpline
210
0.0
220
0.0
230
1.0
 70
     8
 71
     3
 72
    18
 73
    14
 74
     0
 42
0.000000001
 43
0.00000001
 40
0.0
 40
0.0
 40
0.0
 40
0.0
 40
0.4999999999999992
 40
0.4999999999999992
 40
0.7499999999999991
 40
0.7499999999999991
 40
0.8749999999999996
 40
0.8749999999999996
 40
0.9375000000000001
 40
0.9375000000000001
 40
0.96875
 40
0.96875
 40
1.0
 40
1.0
 40
1.0
 40
1.0
 10
-0.3700959098194693
 20
0.0786350060739018
 30
0.0
 10
-0.3500088782679791
 20
0.0921751148070709
 30
0.0
 10
-0.3280802237569984
 20
0.1031543187705576
 30
0.0
 10
-0.2931868970651885
 20
0.1132938484260041
 30
0.0
 10
-0.2812231760189193
 20
0.1156166827133743
 30
0.0
 10
-0.2630913066142884
 20
0.1167673016950515
 30
0.0
 10
-0.2570164539522959
 20
0.1167615631356348
 30
0.0
 10
-0.2479705386798901
 20
0.1159289212230048
 30
0.0
 10
-0.2449662720015549
 20
0.1155140764587639
 30
0.0
 10
-0.2405161479881834
 20
0.1146049135592739
 30
0.0
 10
-0.2390420811350473
 20
0.1142541853155833
 30
0.0
 10
-0.236131202882229
 20
0.1134200095807515
 30
0.0
 10
-0.234675312988936
 20
0.112974465393365
 30
0.0
 10
-0.2333110086860243
 20
0.1123174510687526
 30
0.0
  0
SPLINE
  5
93
330
1F
100
AcDbEntity
  8
0
  6
Continuous
 62
     7
370
    15
100
AcDbSpline
210
0.0
220
0.0
230
1.0
 70
     8
 71
     3
 72
    18
 73
    14
 74
     0
 42
0.000000001
 43
0.00000001
 40
0.0
 40
0.0
 40
0.0
 40
0.0
 40
0.0312500000000002
 40
0.0312500000000002
 40
0.0625000000000004
 40
0.0625000000000004
 40
0.1250000000000001
 40
0.1250000000000001
 40
0.2500000000000003
 40
0.2500000000000003
 40
0.5000000000000004
 40
0.5000000000000004
 40
1.0
 40
1.0
 40
1.0
 40
1.0
 10
-0.1674149349082782
 20
0.1975233002798076
 30
0.0
 10
-0.168393869114281
 20
0.1986784638131818
 30
0.0
 10
-0.1691914205111054
 20
0.1999752559827117
 30
0.0
 10
-0.1707310345572205
 20
0.2025824480696716
 30
0.0
 10
-0.1714412652135703
 20
0.2039208024568959
 30
0.0
 10
-0.1734406623228475
 20
0.2079987892293287
 30
0.0
 10
-0.1745979214281145
 20
0.210801883254462
 30
0.0
 10
-0.1776794566366709
 20
0.2193468018904176
 30
0.0
 10
-0.1792133021683
 20
0.2252244347198623
 30
0.0
 10
-0.1826613677446586
 20
0.2430614212677797
 30
0.0
 10
-0.1834232658159737
 20
0.2552239449069405
 30
0.0
 10
-0.1823892024470036
 20
0.2915436285076503
 30
0.0
 10
-0.1772809434379886
 20
0.3155277437735708
 30
0.0
 10
-0.1692310577064153
 20
0.3383739620126786
 30
0.0
  0
SPLINE
  5
94
330
1F
100
AcDbEntity
  8
0
  6
Continuous
 62
     7
370
    15
100
AcDbSpline
210
0.0
220
0.0
230
1.0
 70
     8
 71
     3
 72
    18
 73
    14
 74
     0
 42
0.000000001
 43
0.00000001
 40
0.0
 40
0.0
 40
0.0
 40
0.0
 40
0.5000000000000002
 40
0.5000000000000002
 40
0.7500000000000001
 40
0.7500000000000001
 40
0.8750000000000004
 40
0.8750000000000004
 40
0.9375000000000002
 40
0.9375000000000002
 40
0.9687500000000001
 40
0.9687500000000001
 40
1.0
 40
1.0
 40
1.0
 40
1.0
 10
-0.1692310577064152
 20
0.3383739620126786
 30
0.0
 10
-0.1461209151008145
 20
0.3311114080675839
 30
0.0
 10
-0.1238647353336432
 20
0.3208123173064957
 30
0.0
 10
-0.0941816984863278
 20
0.2998535093066116
 30
0.0
 10
-0.0849063754472747
 20
0.2919481590347567
 30
0.0
 10
-0.072701749640652
 20
0.2784894918991176
 30
0.0
 10
-0.0689186275445214
 20
0.2737364029033435
 30
0.0
 10
-0.0639295772846147
 20
0.2661448778145133
 30
0.0
 10
-0.0623807863456294
 20
0.2635373960638029
 30
0.0
 10
-0.0603169915837986
 20
0.2594912952132013
 30
0.0
 10
-0.0596721363163181
 20
0.2581201478569922
 30
0.0
 10
-0.0585094182626364
 20
0.2553242315336817
 30
0.0
 10
-0.0579500262340685
 20
0.2539081787229852
 30
0.0
 10
-0.0576130708979852
 20
0.2524318809362313
 30
0.0
  0
SPLINE
  5
9A
330
1F
100
AcDbEntity
  8
0
  6
Continuous
 62
     7
370
    15
100
AcDbSpline
210
0.0
220
0.0
230
1.0
 70
     8
 71
     3
 72
    18
 73
    14
 74
     0
 42
0.000000001
 43
0.00000001
 40
0.0
 40
0.0
 40
0.0
 40
0.0
 40
0.03125
 40
0.03125
 40
0.0625
 40
0.0625
 40
0.125
 40
0.125
 40
0.25
 40
0.25
 40
0.5
 40
0.5
 40
1.0
 40
1.0
 40
1.0
 40
1.0
 10
0.0500890744885967
 20
0.2540372339275589
 30
0.0
 10
0.0503818622122539
 20
0.2555228281916148
 30
0.0
 10
0.0508984699942325
 20
0.2569549156753705
 30
0.0
 10
0.0519769211921082
 20
0.2597841920851796
 30
0.0
 10
0.0525804672155378
 20
0.2611739230838349
 30
0.0
 10
0.0545221619518137
 20
0.2652796978545506
 30
0.0
 10
0.0559921698587388
 20
0.2679321799947425
 30
0.0
 10
0.0607515504868531
 20
0.2756690908623567
 30
0.0
 10
0.0643905318287033
 20
0.280532943716456
 30
0.0
 10
0.0761862157412241
 20
0.2943499291461848
 30
0.0
 10
0.0852202239510609
 20
0.3025288144986534
 30
0.0
 10
0.1142608239884024
 20
0.3243653035337046
 30
0.0
 10
0.1361973077798143
 20
0.3353253570947612
 30
0.0
 10
0.1590782221142486
 20
0.3432760870826694
 30
0.0
  0
SPLINE
  5
9B
330
1F
100
AcDbEntity
  8
0
  6
Continuous
 62
     7
370
    15
100
AcDbSpline
210
0.0
220
0.0
230
1.0
 70
     8
 71
     3
 72
    18
 73
    14
 74
     0
 42
0.000000001
 43
0.00000001
 40
0.0
 40
0.0
 40
0.0
 40
0.0
 40
0.5000000000000001
 40
0.5000000000000001
 40
0.7500000000000002
 40
0.7500000000000002
 40
0.8750000000000002
 40
0.8750000000000002
 40
0.9375000000000002
 40
0.9375000000000002
 40
0.9687500000000001
 40
0.9687500000000001
 40
1.0
 40
1.0
 40
1.0
 40
1.0
 10
0.1590782221142487
 20
0.3432760870826694
 30
0.0
 10
0.1678090670309446
 20
0.3206797217090693
 30
0.0
 10
0.1736334147462964
 20
0.2968577616296717
 30
0.0
 10
0.1757542295794818
 20
0.2605830258801382
 30
0.0
 10
0.1753566471808036
 20
0.2484023810435229
 30
0.0
 10
0.1724436972280341
 20
0.2304690786504813
 30
0.0
 10
0.1710863206582893
 20
0.2245478121775139
 30
0.0
 10
0.1682616493019085
 20
0.2159139771432629
 30
0.0
 10
0.1671886933349109
 20
0.2130773453473024
 30
0.0
 10
0.1653120792958007
 20
0.2089411030115084
 30
0.0
 10
0.1646421338085627
 20
0.2075820384683149
 30
0.0
 10
0.1631811412535597
 20
0.2049297635742781
 30
0.0
 10
0.1624228018103728
 20
0.2036095187889391
 30
0.0
 10
0.1614786739389209
 20
0.2024256198844564
 30
0.0
  0
SPLINE
  5
A1
330
1F
100
AcDbEntity
  8
0
  6
Continuous
 62
     7
370
    15
100
AcDbSpline
210
0.0
220
0.0
230
1.0
 70
     8
 71
     3
 72
    18
 73
    14
 74
     0
 42
0.000000001
 43
0.00000001
 40
0.0
 40
0.0
 40
0.0
 40
0.0
 40
0.0312499999999999
 40
0.0312499999999999
 40
0.0624999999999999
 40
0.0624999999999999
 40
0.1249999999999999
 40
0.1249999999999999
 40
0.2499999999999998
 40
0.2499999999999998
 40
0.4999999999999997
 40
0.4999999999999997
 40
1.0
 40
1.0
 40
1.0
 40
1.0
 10
0.2298849787348553
 20
0.1192216131103538
 30
0.0
 10
0.2312290132604778
 20
0.1199189553236564
 30
0.0
 10
0.2326707640245509
 20
0.1204079470371094
 30
0.0
 10
0.2355551847180218
 20
0.1213288049264602
 30
0.0
 10
0.2370180249554929
 20
0.1217234167492132
 30
0.0
 10
0.241438675797552
 20
0.1227652473733201
 30
0.0
 10
0.2444290047800579
 20
0.1232697444762313
 30
0.0
 10
0.2534453905582008
 20
0.1243725958879706
 30
0.0
 10
0.2595169716014256
 20
0.1245600883630708
 30
0.0
 10
0.2776740144285956
 20
0.123952600830887
 30
0.0
 10
0.2897011364773933
 20
0.1219889804073975
 30
0.0
 10
0.3248801090347055
 20
0.1128989532501968
 30
0.0
 10
0.3471261978908592
 20
0.1025818012305649
 30
0.0
 10
0.3676083456487322
 20
0.0896499811210434
 30
0.0
  0
SPLINE
  5
A2
330
1F
100
AcDbEntity
  8
0
  6
Continuous
 62
     7
370
    15
100
AcDbSpline
210
0.0
220
0.0
230
1.0
 70
     8
 71
     3
 72
    18
 73
    14
 74
     0
 42
0.000000001
 43
0.00000001
 40
0.0
 40
0.0
 40
0.0
 40
0.0
 40
0.4999999999999988
 40
0.4999999999999988
 40
0.7499999999999987
 40
0.7499999999999987
 40
0.874999999999999
 40
0.874999999999999
 40
0.9374999999999994
 40
0.9374999999999994
 40
0.9687499999999998
 40
0.9687499999999998
 40
1.0
 40
1.0
 40
1.0
 40
1.0
 10
0.3676083456487322
 20
0.0896499811210435
 30
0.0
 10
0.3553853885774712
 20
0.0687353283271115
 30
0.0
 10
0.3403920516163019
 20
0.0493289207486179
 30
0.0
 10
0.3133536276092306
 20
0.0250538731385943
 30
0.0
 10
0.3035825274282281
 20
0.0177702077390631
 30
0.0
 10
0.2877455124438529
 20
0.0088664125632817
 30
0.0
 10
0.2822697694506867
 20
0.0062358030390893
 30
0.0
 10
0.2737584116221677
 20
0.0030611119383476
 30
0.0
 10
0.2708716664766494
 20
0.0021313716962388
 30
0.0
 10
0.2664677722839985
 20
0.0010196627180726
 30
0.0
 10
0.2649875086583295
 20
0.0006960843087838
 30
0.0
 10
0.2620029626873763
 20
0.0001846679357784
 30
0.0
 10
0.26049793684046
 20
-0.0000455975727568
 30
0.0
 10
0.2589836733053748
 20
-0.0000455975727568
 30
0.0
  0
SPLINE
  5
A3
330
1F
100
AcDbEntity
  8
0
  6
Continuous
 62
     7
370
    15
100
AcDbSpline
210
0.0
220
0.0
230
1.0
 70
     8
 71
     3
 72
    18
 73
    14
 74
     0
 42
0.000000001
 43
0.00000001
 40
0.0
 40
0.0
 40
0.0
 40
0.0
 40
0.0312500000000001
 40
0.0312500000000001
 40
0.0625000000000002
 40
0.0625000000000002
 40
0.1250000000000003
 40
0.1250000000000003
 40
0.2500000000000001
 40
0.2500000000000001
 40
0.5
 40
0.5
 40
1.0
 40
1.0
 40
1.0
 40
1.0
 10
-0.1553458874560734
 20
-0.2072392395976133
 30
0.0
 10
-0.1562542552740928
 20
-0.2084506779475531
 30
0.0
 10
-0.157341062274767
 20
-0.2095167964704284
 30
0.0
 10
-0.1595402902572898
 20
-0.211597963996167
 30
0.0
 10
-0.1606870481168107
 20
-0.2125881995553394
 30
0.0
 10
-0.1642178835346575
 20
-0.2154449050299727
 30
0.0
 10
-0.1666931837632966
 20
-0.2171968963337641
 30
0.0
 10
-0.1743381573561851
 20
-0.2221025942964101
 30
0.0
 10
-0.1797271129189239
 20
-0.2249058794648311
 30
0.0
 10
-0.1963496222013069
 20
-0.2322365977438656
 30
0.0
 10
-0.2080376677092871
 20
-0.2356858095592793
 30
0.0
 10
-0.2436768417598649
 20
-0.2427595622337348
 30
0.0
 10
-0.2681963197471729
 20
-0.2431163456722792
 30
0.0
 10
-0.2922610036875085
 20
-0.2403520492026308
 30
0.0
  0
LINE
  5
A4
330
1F
100
AcDbEntity
  8
0
  6
Continuous
 62
     7
370
    15
100
AcDbLine
 10
0.2548870189
 20
-0.0000455976
 30
0.0
 11
0.2589836733
 21
-0.0000455976
 31
0.0
  0
LINE
  5
A5
330
1F
100
AcDbEntity
  8
0
  6
Continuous
 62
     7
370
    15
100
AcDbLine
 10
0.2365827948
 20
-0.10540465
 30
0.0
 11
0.2328405
 21
-0.1037379745
 31
0.0
  0
LINE
  5
A6
330
1F
100
AcDbEntity
  8
0
  6
Continuous
 62
     7
370
    15
100
AcDbLine
 10
0.1589244517
 20
-0.1993139217
 30
0.0
 11
0.1614786739
 21
-0.202516815
 31
0.0
  0
LINE
  5
A7
330
1F
100
AcDbEntity
  8
0
  6
Continuous
 62
     7
370
    15
100
AcDbLine
 10
0.0651389305
 20
-0.2506933976
 30
0.0
 11
0.0641087072
 21
-0.2467283986
 31
0.0
  0
LINE
  5
A8
330
1F
100
AcDbEntity
  8
0
  6
Continuous
 62
     7
370
    15
100
AcDbLine
 10
-0.0567014795
 20
-0.2485291334
 30
0.0
 11
-0.0576130709
 21
-0.2525230761
 31
0.0
  0
LINE
  5
A9
330
1F
100
AcDbEntity
  8
0
  6
Continuous
 62
     7
370
    15
100
AcDbLine
 10
-0.1553458875
 20
-0.2072392396
 30
0.0
 11
-0.1528882601
 21
-0.2039616422
 31
0.0
  0
LINE
  5
AA
330
1F
100
AcDbEntity
  8
0
  6
Continuous
 62
     7
370
    15
100
AcDbLine
 10
-0.2296200506
 20
-0.1106311745
 30
0.0
 11
-0.2333110087
 21
-0.1124086462
 31
0.0
  0
LINE
  5
AB
330
1F
100
AcDbEntity
  8
0
  6
Continuous
 62
     7
370
    15
100
AcDbLine
 10
-0.2588420941
 20
-0.0077640431
 30
0.0
 11
-0.2547472596
 21
-0.007641945
 31
0.0
  0
LINE
  5
AC
330
1F
100
AcDbEntity
  8
0
  6
Continuous
 62
     7
370
    15
100
AcDbLine
 10
-0.2296200506
 20
0.1105399793
 30
0.0
 11
-0.2333110087
 21
0.1123174511
 31
0.0
  0
LINE
  5
AD
330
1F
100
AcDbEntity
  8
0
  6
Continuous
 62
     7
370
    15
100
AcDbLine
 10
-0.1674149349
 20
0.1975233003
 30
0.0
 11
-0.1647663872
 21
0.1943979567
 31
0.0
  0
LINE
  5
AE
330
1F
100
AcDbEntity
  8
0
  6
Continuous
 62
     7
370
    15
100
AcDbLine
 10
-0.0567014795
 20
0.2484379382
 30
0.0
 11
-0.0576130709
 21
0.2524318809
 31
0.0
  0
LINE
  5
AF
330
1F
100
AcDbEntity
  8
0
  6
Continuous
 62
     7
370
    15
100
AcDbLine
 10
0.0500890745
 20
0.2540372339
 30
0.0
 11
0.049296925
 21
0.2500178961
 31
0.0
  0
LINE
  5
B0
330
1F
100
AcDbEntity
  8
0
  6
Continuous
 62
     7
370
    15
100
AcDbLine
 10
0.1589244517
 20
0.1992227265
 30
0.0
 11
0.1614786739
 21
0.2024256199
 31
0.0
  0
LINE
  5
B1
330
1F
100
AcDbEntity
  8
0
  6
Continuous
 62
     7
370
    15
100
AcDbLine
 10
0.2298849787
 20
0.1192216131
 30
0.0
 11
0.2262486368
 21
0.1173349244
 31
0.0
  0
ARC
  5
B2
330
1F
100
AcDbEntity
  8
0
  6
Continuous
 62
     7
370
    15
100
AcDbCircle
 10
0.2548870189
 20
-0.0049668574
 30
0.0
 40
0.0049212598425198
100
AcDbArc
 50
90.0
 51
178.8938351549
  0
ARC
  5
B3
330
1F
100
AcDbEntity
  8
0
  6
Continuous
 62
     7
370
    15
100
AcDbCircle
 10
0.000013266
 20
-0.0000455976
 30
0.0
 40
0.2500000000000042
100
AcDbArc
 50
337.0997957145
 51
358.8938351549
  0
ARC
  5
B4
330
1F
100
AcDbEntity
  8
0
  6
Continuous
 62
     7
370
    15
100
AcDbCircle
 10
0.2348426565
 20
-0.0992424025
 30
0.0
 40
0.0049212598425197
100
AcDbArc
 50
157.0997957145
 51
245.9936308694
  0
ARC
  5
B5
330
1F
100
AcDbEntity
  8
0
  6
Continuous
 62
     7
370
    15
100
AcDbCircle
 10
0.1550768558
 20
-0.202382277
 30
0.0
 40
0.0049212598425197
100
AcDbArc
 50
38.5714285714
 51
127.4652637263
  0
ARC
  5
B6
330
1F
100
AcDbEntity
  8
0
  6
Continuous
 62
     7
370
    15
100
AcDbCircle
 10
0.000013266
 20
-0.0000455976
 30
0.0
 40
0.250000000000004
100
AcDbArc
 50
285.671224286
 51
307.4652637263
  0
ARC
  5
B7
330
1F
100
AcDbEntity
  8
0
  6
Continuous
 62
     7
370
    15
100
AcDbCircle
 10
0.0688718111
 20
-0.2454908043
 30
0.0
 40
0.0049212598425198
100
AcDbArc
 50
105.671224286
 51
194.5650594408
  0
ARC
  5
B8
330
1F
100
AcDbEntity
  8
0
  6
Continuous
 62
     7
370
    15
100
AcDbCircle
 10
-0.0614993531
 20
-0.24743405
 30
0.0
 40
0.0049212598425197
100
AcDbArc
 50
347.1428571429
 51
76.0366922977
  0
ARC
  5
B9
330
1F
100
AcDbEntity
  8
0
  6
Continuous
 62
     7
370
    15
100
AcDbCircle
 10
0.000013266
 20
-0.0000455976
 30
0.0
 40
0.2500000000000044
100
AcDbArc
 50
234.2426528574
 51
256.0366922977
  0
ARC
  5
BA
330
1F
100
AcDbEntity
  8
0
  6
Continuous
 62
     7
370
    15
100
AcDbCircle
 10
-0.1489509232
 20
-0.2069139593
 30
0.0
 40
0.0049212598425197
100
AcDbArc
 50
54.2426528574
 51
143.1364880123
  0
ARC
  5
BB
330
1F
100
AcDbEntity
  8
0
  6
Continuous
 62
     7
370
    15
100
AcDbCircle
 10
-0.2317553052
 20
-0.1061972726
 30
0.0
 40
0.0049212598425196
100
AcDbArc
 50
295.7142857143
 51
24.6081208692
  0
ARC
  5
BC
330
1F
100
AcDbEntity
  8
0
  6
Continuous
 62
     7
370
    15
100
AcDbCircle
 10
0.000013266
 20
-0.0000455976
 30
0.0
 40
0.2500000000000018
100
AcDbArc
 50
182.8140814288
 51
204.6081208692
  0
ARC
  5
BD
330
1F
100
AcDbEntity
  8
0
  6
Continuous
 62
     7
370
    15
100
AcDbCircle
 10
-0.2546005847
 20
-0.0125610186
 30
0.0
 40
0.0049212598425198
100
AcDbArc
 50
2.8140814288
 51
91.7079165837
  0
ARC
  5
BE
330
1F
100
AcDbEntity
  8
0
  6
Continuous
 62
     7
370
    15
100
AcDbCircle
 10
-0.227484796
 20
0.1149738813
 30
0.0
 40
0.0049212598425197
100
AcDbArc
 50
244.2857142857
 51
333.1795494406
  0
ARC
  5
BF
330
1F
100
AcDbEntity
  8
0
  6
Continuous
 62
     7
370
    15
100
AcDbCircle
 10
0.000013266
 20
-0.0000455976
 30
0.0
 40
0.2500000000000016
100
AcDbArc
 50
131.3855100002
 51
153.1795494406
  0
ARC
  5
C0
330
1F
100
AcDbEntity
  8
0
  6
Continuous
 62
     7
370
    15
100
AcDbCircle
 10
-0.1685208235
 20
0.1912162894
 30
0.0
 40
0.0049212598425198
100
AcDbArc
 50
311.3855100002
 51
40.2793451551
  0
ARC
  5
C1
330
1F
100
AcDbEntity
  8
0
  6
Continuous
 62
     7
370
    15
100
AcDbCircle
 10
-0.051903606
 20
0.2495330216
 30
0.0
 40
0.0049212598425196
100
AcDbArc
 50
192.8571428571
 51
281.750978012
  0
ARC
  5
C2
330
1F
100
AcDbEntity
  8
0
  6
Continuous
 62
     7
370
    15
100
AcDbCircle
 10
0.000013266
 20
-0.0000455976
 30
0.0
 40
0.2500000000000016
100
AcDbArc
 50
79.9569385717
 51
101.750978012
  0
ARC
  5
C3
330
1F
100
AcDbEntity
  8
0
  6
Continuous
 62
     7
370
    15
100
AcDbCircle
 10
0.0444685446
 20
0.2509694954
 30
0.0
 40
0.0049212598425198
100
AcDbArc
 50
259.9569385717
 51
348.8507737265
  0
ARC
  5
C4
330
1F
100
AcDbEntity
  8
0
  6
Continuous
 62
     7
370
    15
100
AcDbCircle
 10
0.1627720476
 20
0.1961543712
 30
0.0
 40
0.0049212598425196
100
AcDbArc
 50
141.4285714286
 51
230.3224065834
  0
ARC
  5
C5
330
1F
100
AcDbEntity
  8
0
  6
Continuous
 62
     7
370
    15
100
AcDbCircle
 10
0.000013266
 20
-0.0000455976
 30
0.0
 40
0.25
100
AcDbArc
 50
28.5283671431
 51
50.3224065834
  0
ARC
  5
C6
330
1F
100
AcDbEntity
  8
0
  6
Continuous
 62
     7
370
    15
100
AcDbCircle
 10
0.2239821811
 20
0.1217032167
 30
0.0
 40
0.0049212598425198
100
AcDbArc
 50
208.5283671431
 51
297.422202298
  0
MTEXT
  5
C8
330
1F
100
AcDbEntity
  8
0
  6
Continuous
 62
     7
100
AcDbMText
 10
-0.3700959098
 20
-0.4185238542
 30
0.0
 40
0.1903
 41
0.0
 71
     1
 72
     1
  1
SOLIDWORKS Educational Product.
  7
SLDTEXTSTYLE0
 73
     1
 44
1.0
  0
MTEXT
  5
C9
330
1F
100
AcDbEntity
  8
0
  6
Continuous
 62
     7
100
AcDbMText
 10
-0.3700959098
 20
-0.7039738542
 30
0.0
 40
0.1903
 41
0.0
 71
     1
 72
     1
  1
For Instructional Use Only.
  7
SLDTEXTSTYLE0
 73
     1
 44
1.0
  0
ENDSEC
  0
SECTION
  2
OBJECTS
  0
DICTIONARY
  5
C
330
0
100
AcDbDictionary
281
     1
  3
ACAD_GROUP
350
D
  3
ACAD_LAYOUT
350
1A
  3
ACAD_MLINESTYLE
350
17
  3
ACAD_PLOTSETTINGS
350
19
  3
ACAD_PLOTSTYLENAME
350
E
  3
ACAD_SCALELIST
350
47
  0
DICTIONARY
  5
D
102
{ACAD_REACTORS
330
C
102
}
330
C
100
AcDbDictionary
281
     1
  0
DICTIONARY
  5
1A
102
{ACAD_REACTORS
330
C
102
}
330
C
100
AcDbDictionary
281
     1
  3
Layout1
350
1E
  3
Layout2
350
26
  3
Model
350
22
  0
DICTIONARY
  5
17
102
{ACAD_REACTORS
330
C
102
}
330
C
100
AcDbDictionary
281
     1
  3
Standard
350
18
  0
DICTIONARY
  5
19
102
{ACAD_REACTORS
330
C
102
}
330
C
100
AcDbDictionary
281
     1
  0
ACDBDICTIONARYWDFLT
  5
E
102
{ACAD_REACTORS
330
C
102
}
330
C
100
AcDbDictionary
281
     1
  3
Normal
350
F
100
AcDbDictionaryWithDefault
340
F
  0
DICTIONARY
  5
47
102
{ACAD_REACTORS
330
C
102
}
330
C
100
AcDbDictionary
281
     1
  3
A0
350
48
  3
A1
350
49
  3
A2
350
4A
  3
A3
350
4B
  3
A4
350
4C
  3
A5
350
4D
  3
A6
350
4E
  3
A7
350
4F
  3
A8
350
50
  3
A9
350
51
  3
B0
350
52
  3
B1
350
53
  3
B2
350
54
  3
B3
350
55
  3
B4
350
56
  3
B5
350
57
  3
B6
350
58
  3
B7
350
59
  3
B8
350
5A
  3
B9
350
5B
  3
C0
350
5C
  3
C1
350
5D
  3
C2
350
5E
  3
C3
350
5F
  3
C4
350
60
  3
C5
350
61
  3
C6
350
62
  3
C7
350
63
  3
C8
350
64
  3
C9
350
65
  3
D0
350
66
  3
D1
350
67
  3
D2
350
68
  0
LAYOUT
  5
1E
102
{ACAD_REACTORS
330
1A
102
}
330
1A
100
AcDbPlotSettings
  1

  2
none_device
  4

  6

 40
0.0
 41
0.0
 42
0.0
 43
0.0
 44
0.0
 45
0.0
 46
0.0
 47
0.0
 48
0.0
 49
0.0
140
0.0
141
0.0
142
1.0
143
1.0
 70
   688
 72
     0
 73
     0
 74
     5
  7

 75
    16
147
1.0
148
0.0
149
0.0
100
AcDbLayout
  1
Layout1
 70
     1
 71
     1
 10
0.0
 20
0.0
 11
12.0
 21
9.0
 12
0.0
 22
0.0
 32
0.0
 14
1.0000000000E+20
 24
1.0000000000E+20
 34
1.0000000000E+20
 15
-1.0000000000E+20
 25
-1.0000000000E+20
 35
-1.0000000000E+20
146
0.0
 13
0.0
 23
0.0
 33
0.0
 16
1.0
 26
0.0
 36
0.0
 17
0.0
 27
1.0
 37
0.0
 76
     0
330
1B
  0
LAYOUT
  5
26
102
{ACAD_REACTORS
330
1A
102
}
330
1A
100
AcDbPlotSettings
  1

  2
none_device
  4

  6

 40
0.0
 41
0.0
 42
0.0
 43
0.0
 44
0.0
 45
0.0
 46
0.0
 47
0.0
 48
0.0
 49
0.0
140
0.0
141
0.0
142
1.0
143
1.0
 70
   688
 72
     0
 73
     0
 74
     5
  7

 75
    16
147
1.0
148
0.0
149
0.0
100
AcDbLayout
  1
Layout2
 70
     1
 71
     2
 10
0.0
 20
0.0
 11
0.0
 21
0.0
 12
0.0
 22
0.0
 32
0.0
 14
0.0
 24
0.0
 34
0.0
 15
0.0
 25
0.0
 35
0.0
146
0.0
 13
0.0
 23
0.0
 33
0.0
 16
1.0
 26
0.0
 36
0.0
 17
0.0
 27
1.0
 37
0.0
 76
     0
330
23
  0
LAYOUT
  5
22
102
{ACAD_REACTORS
330
1A
102
}
330
1A
100
AcDbPlotSettings
  1

  2
none_device
  4
ANSI_A_(11.00_x_8.50_Inches)
  6

 40
6.35
 41
19.05
 42
6.35000508
 43
19.05000254
 44
279.4
 45
215.9
 46
133.7183806308
 47
94.0990444461
 48
0.0
 49
0.0
140
0.0
141
0.0
142
11.6606233624
143
1.0
 70
  1696
 72
     0
 73
     0
 74
     0
  7

 75
     0
147
0.5913241897
148
-39.4088153714
149
0.0
100
AcDbLayout
  1
Model
 70
     1
 71
     0
 10
0.0
 20
0.0
 11
12.0
 21
9.0
 12
0.0
 22
0.0
 32
0.0
 14
-0.3700959098
 24
-0.378383445
 34
0.0
 15
0.3676083456
 25
0.3432760871
 35
0.0
146
0.0
 13
0.0
 23
0.0
 33
0.0
 16
1.0
 26
0.0
 36
0.0
 17
0.0
 27
1.0
 37
0.0
 76
     0
330
1F
331
29
  0
MLINESTYLE
  5
18
102
{ACAD_REACTORS
330
17
102
}
330
17
100
AcDbMlineStyle
  2
Standard
 70
     0
  3

 62
   256
 51
90.0
 52
90.0
 71
     2
 49
0.5
 62
   256
  6
BYLAYER
 49
-0.5
 62
   256
  6
BYLAYER
  0
ACDBPLACEHOLDER
  5
F
102
{ACAD_REACTORS
330
E
102
}
330
E
  0
SCALE
  5
48
102
{ACAD_REACTORS
330
47
102
}
330
47
100
AcDbScale
 70
     0
300
1:1
140
1.0
141
1.0
290
     1
  0
SCALE
  5
49
102
{ACAD_REACTORS
330
47
102
}
330
47
100
AcDbScale
 70
     0
300
1:2
140
1.0
141
2.0
290
     0
  0
SCALE
  5
4A
102
{ACAD_REACTORS
330
47
102
}
330
47
100
AcDbScale
 70
     0
300
1:4
140
1.0
141
4.0
290
     0
  0
SCALE
  5
4B
102
{ACAD_REACTORS
330
47
102
}
330
47
100
AcDbScale
 70
     0
300
1:5
140
1.0
141
5.0
290
     0
  0
SCALE
  5
4C
102
{ACAD_REACTORS
330
47
102
}
330
47
100
AcDbScale
 70
     0
300
1:8
140
1.0
141
8.0
290
     0
  0
SCALE
  5
4D
102
{ACAD_REACTORS
330
47
102
}
330
47
100
AcDbScale
 70
     0
300
1:10
140
1.0
141
10.0
290
     0
  0
SCALE
  5
4E
102
{ACAD_REACTORS
330
47
102
}
330
47
100
AcDbScale
 70
     0
300
1:16
140
1.0
141
16.0
290
     0
  0
SCALE
  5
4F
102
{ACAD_REACTORS
330
47
102
}
330
47
100
AcDbScale
 70
     0
300
1:20
140
1.0
141
20.0
290
     0
  0
SCALE
  5
50
102
{ACAD_REACTORS
330
47
102
}
330
47
100
AcDbScale
 70
     0
300
1:30
140
1.0
141
30.0
290
     0
  0
SCALE
  5
51
102
{ACAD_REACTORS
330
47
102
}
330
47
100
AcDbScale
 70
     0
300
1:40
140
1.0
141
40.0
290
     0
  0
SCALE
  5
52
102
{ACAD_REACTORS
330
47
102
}
330
47
100
AcDbScale
 70
     0
300
1:50
140
1.0
141
50.0
290
     0
  0
SCALE
  5
53
102
{ACAD_REACTORS
330
47
102
}
330
47
100
AcDbScale
 70
     0
300
1:100
140
1.0
141
100.0
290
     0
  0
SCALE
  5
54
102
{ACAD_REACTORS
330
47
102
}
330
47
100
AcDbScale
 70
     0
300
2:1
140
2.0
141
1.0
290
     0
  0
SCALE
  5
55
102
{ACAD_REACTORS
330
47
102
}
330
47
100
AcDbScale
 70
     0
300
4:1
140
4.0
141
1.0
290
     0
  0
SCALE
  5
56
102
{ACAD_REACTORS
330
47
102
}
330
47
100
AcDbScale
 70
     0
300
8:1
140
8.0
141
1.0
290
     0
  0
SCALE
  5
57
102
{ACAD_REACTORS
330
47
102
}
330
47
100
AcDbScale
 70
     0
300
10:1
140
10.0
141
1.0
290
     0
  0
SCALE
  5
58
102
{ACAD_REACTORS
330
47
102
}
330
47
100
AcDbScale
 70
     0
300
100:1
140
100.0
141
1.0
290
     0
  0
SCALE
  5
59
102
{ACAD_REACTORS
330
47
102
}
330
47
100
AcDbScale
 70
     0
300
1/128" = 1'-0"
140
0.0078125
141
12.0
290
     0
  0
SCALE
  5
5A
102
{ACAD_REACTORS
330
47
102
}
330
47
100
AcDbScale
 70
     0
300
1/64" = 1'-0"
140
0.015625
141
12.0
290
     0
  0
SCALE
  5
5B
102
{ACAD_REACTORS
330
47
102
}
330
47
100
AcDbScale
 70
     0
300
1/32" = 1'-0"
140
0.03125
141
12.0
290
     0
  0
SCALE
  5
5C
102
{ACAD_REACTORS
330
47
102
}
330
47
100
AcDbScale
 70
     0
300
1/16" = 1'-0"
140
0.0625
141
12.0
290
     0
  0
SCALE
  5
5D
102
{ACAD_REACTORS
330
47
102
}
330
47
100
AcDbScale
 70
     0
300
3/32" = 1'-0"
140
0.09375
141
12.0
290
     0
  0
SCALE
  5
5E
102
{ACAD_REACTORS
330
47
102
}
330
47
100
AcDbScale
 70
     0
300
1/8" = 1'-0"
140
0.125
141
12.0
290
     0
  0
SCALE
  5
5F
102
{ACAD_REACTORS
330
47
102
}
330
47
100
AcDbScale
 70
     0
300
3/16" = 1'-0"
140
0.1875
141
12.0
290
     0
  0
SCALE
  5
60
102
{ACAD_REACTORS
330
47
102
}
330
47
100
AcDbScale
 70
     0
300
1/4" = 1'-0"
140
0.25
141
12.0
290
     0
  0
SCALE
  5
61
102
{ACAD_REACTORS
330
47
102
}
330
47
100
AcDbScale
 70
     0
300
3/8" = 1'-0"
140
0.375
141
12.0
290
     0
  0
SCALE
  5
62
102
{ACAD_REACTORS
330
47
102
}
330
47
100
AcDbScale
 70
     0
300
1/2" = 1'-0"
140
0.5
141
12.0
290
     0
  0
SCALE
  5
63
102
{ACAD_REACTORS
330
47
102
}
330
47
100
AcDbScale
 70
     0
300
3/4" = 1'-0"
140
0.75
141
12.0
290
     0
  0
SCALE
  5
64
102
{ACAD_REACTORS
330
47
102
}
330
47
100
AcDbScale
 70
     0
300
1" = 1'-0"
140
1.0
141
12.0
290
     0
  0
SCALE
  5
65
102
{ACAD_REACTORS
330
47
102
}
330
47
100
AcDbScale
 70
     0
300
1-1/2" = 1'-0"
140
1.5
141
12.0
290
     0
  0
SCALE
  5
66
102
{ACAD_REACTORS
330
47
102
}
330
47
100
AcDbScale
 70
     0
300
3" = 1'-0"
140
3.0
141
12.0
290
     0
  0
SCALE
  5
67
102
{ACAD_REACTORS
330
47
102
}
330
47
100
AcDbScale
 70
     0
300
6" = 1'-0"
140
6.0
141
12.0
290
     0
  0
SCALE
  5
68
102
{ACAD_REACTORS
330
47
102
}
330
47
100
AcDbScale
 70
     0
300
1'-0" = 1'-0"
140
12.0
141
12.0
290
     0
  0
ENDSEC
  0
EOF
